<mxfile host="Electron" modified="2024-05-19T17:32:15.208Z" agent="Mozilla/5.0 (Macintosh; Intel Mac OS X 10_15_7) AppleWebKit/537.36 (KHTML, like Gecko) draw.io/24.4.0 Chrome/120.0.6099.109 Electron/28.1.0 Safari/537.36" etag="kgrS5f1tfl8BkgA943ZJ" version="24.4.0" type="device" pages="7">
  <diagram name="design_image-processing-pipeline" id="SnYhXWYiaqMVeOtluwFO">
    <mxGraphModel dx="1194" dy="824" grid="1" gridSize="10" guides="1" tooltips="1" connect="1" arrows="1" fold="1" page="1" pageScale="1" pageWidth="827" pageHeight="1169" math="0" shadow="0">
      <root>
        <mxCell id="0" />
        <mxCell id="1" parent="0" />
        <mxCell id="nnKMbR0eV7D-oJcOBmdO-8" style="edgeStyle=orthogonalEdgeStyle;rounded=0;orthogonalLoop=1;jettySize=auto;html=1;exitX=1;exitY=0.5;exitDx=0;exitDy=0;entryX=0;entryY=0.5;entryDx=0;entryDy=0;" parent="1" source="nnKMbR0eV7D-oJcOBmdO-1" target="nnKMbR0eV7D-oJcOBmdO-2" edge="1">
          <mxGeometry relative="1" as="geometry" />
        </mxCell>
        <mxCell id="nnKMbR0eV7D-oJcOBmdO-1" value="Greyscale Conversion" style="rounded=0;whiteSpace=wrap;html=1;" parent="1" vertex="1">
          <mxGeometry x="70" y="120" width="80" height="40" as="geometry" />
        </mxCell>
        <mxCell id="nnKMbR0eV7D-oJcOBmdO-9" style="edgeStyle=orthogonalEdgeStyle;rounded=0;orthogonalLoop=1;jettySize=auto;html=1;exitX=1;exitY=0.5;exitDx=0;exitDy=0;entryX=0;entryY=0.5;entryDx=0;entryDy=0;" parent="1" source="nnKMbR0eV7D-oJcOBmdO-2" target="nnKMbR0eV7D-oJcOBmdO-3" edge="1">
          <mxGeometry relative="1" as="geometry" />
        </mxCell>
        <mxCell id="nnKMbR0eV7D-oJcOBmdO-2" value="Gaussian Blur" style="rounded=0;whiteSpace=wrap;html=1;" parent="1" vertex="1">
          <mxGeometry x="190" y="120" width="80" height="40" as="geometry" />
        </mxCell>
        <mxCell id="nnKMbR0eV7D-oJcOBmdO-3" value="Histogram Equalisation" style="rounded=0;whiteSpace=wrap;html=1;" parent="1" vertex="1">
          <mxGeometry x="310" y="120" width="80" height="40" as="geometry" />
        </mxCell>
        <mxCell id="nnKMbR0eV7D-oJcOBmdO-11" style="edgeStyle=orthogonalEdgeStyle;rounded=0;orthogonalLoop=1;jettySize=auto;html=1;exitX=1;exitY=0.5;exitDx=0;exitDy=0;entryX=0;entryY=0.5;entryDx=0;entryDy=0;" parent="1" source="nnKMbR0eV7D-oJcOBmdO-3" target="nnKMbR0eV7D-oJcOBmdO-5" edge="1">
          <mxGeometry relative="1" as="geometry">
            <mxPoint x="510" y="140" as="sourcePoint" />
          </mxGeometry>
        </mxCell>
        <mxCell id="nnKMbR0eV7D-oJcOBmdO-12" style="edgeStyle=orthogonalEdgeStyle;rounded=0;orthogonalLoop=1;jettySize=auto;html=1;exitX=1;exitY=0.5;exitDx=0;exitDy=0;entryX=0;entryY=0.5;entryDx=0;entryDy=0;" parent="1" source="nnKMbR0eV7D-oJcOBmdO-5" target="nnKMbR0eV7D-oJcOBmdO-6" edge="1">
          <mxGeometry relative="1" as="geometry" />
        </mxCell>
        <mxCell id="nnKMbR0eV7D-oJcOBmdO-5" value="Canny Algorithm" style="rounded=0;whiteSpace=wrap;html=1;" parent="1" vertex="1">
          <mxGeometry x="430" y="120" width="80" height="40" as="geometry" />
        </mxCell>
        <mxCell id="nnKMbR0eV7D-oJcOBmdO-6" value="Particle Segmentation" style="rounded=0;whiteSpace=wrap;html=1;" parent="1" vertex="1">
          <mxGeometry x="550" y="120" width="80" height="40" as="geometry" />
        </mxCell>
        <mxCell id="nnKMbR0eV7D-oJcOBmdO-7" value="" style="shape=flexArrow;endArrow=classic;html=1;rounded=0;entryX=0;entryY=0.5;entryDx=0;entryDy=0;" parent="1" target="nnKMbR0eV7D-oJcOBmdO-1" edge="1">
          <mxGeometry width="50" height="50" relative="1" as="geometry">
            <mxPoint y="140" as="sourcePoint" />
            <mxPoint x="550" y="410" as="targetPoint" />
          </mxGeometry>
        </mxCell>
        <mxCell id="nnKMbR0eV7D-oJcOBmdO-13" value="" style="shape=flexArrow;endArrow=classic;html=1;rounded=0;entryX=0;entryY=0.5;entryDx=0;entryDy=0;" parent="1" edge="1">
          <mxGeometry width="50" height="50" relative="1" as="geometry">
            <mxPoint x="630" y="139.5" as="sourcePoint" />
            <mxPoint x="700" y="139.5" as="targetPoint" />
          </mxGeometry>
        </mxCell>
        <mxCell id="nnKMbR0eV7D-oJcOBmdO-14" value="Input Image Frame" style="text;html=1;align=center;verticalAlign=middle;whiteSpace=wrap;rounded=0;" parent="1" vertex="1">
          <mxGeometry y="90" width="70" height="30" as="geometry" />
        </mxCell>
        <mxCell id="nnKMbR0eV7D-oJcOBmdO-15" value="Output Particles" style="text;html=1;align=center;verticalAlign=middle;whiteSpace=wrap;rounded=0;" parent="1" vertex="1">
          <mxGeometry x="630" y="90" width="70" height="30" as="geometry" />
        </mxCell>
      </root>
    </mxGraphModel>
  </diagram>
  <diagram id="PUYWnB4deSpcM1PiG04x" name="design-image_multiprocessing_pipeline">
    <mxGraphModel dx="1194" dy="824" grid="1" gridSize="5" guides="1" tooltips="1" connect="1" arrows="1" fold="1" page="1" pageScale="1" pageWidth="827" pageHeight="1169" math="0" shadow="0">
      <root>
        <mxCell id="0" />
        <mxCell id="1" parent="0" />
        <mxCell id="byc6SguBSszFDmuJhmrP-78" value="Parallel Image Processing Pipeline" style="shape=table;childLayout=tableLayout;startSize=40;collapsible=0;recursiveResize=0;expand=0;fontSize=11;" parent="1" vertex="1">
          <mxGeometry width="780" height="320" as="geometry" />
        </mxCell>
        <mxCell id="byc6SguBSszFDmuJhmrP-79" value="" style="shape=tableRow;horizontal=0;swimlaneHead=0;swimlaneBody=0;top=0;left=0;strokeColor=inherit;bottom=0;right=0;dropTarget=0;fontStyle=0;fillColor=none;points=[[0,0.5],[1,0.5]];portConstraint=eastwest;startSize=0;collapsible=0;recursiveResize=0;expand=0;fontSize=11;" parent="byc6SguBSszFDmuJhmrP-78" vertex="1">
          <mxGeometry y="40" width="780" height="60" as="geometry" />
        </mxCell>
        <mxCell id="byc6SguBSszFDmuJhmrP-155" value="Time" style="swimlane;swimlaneHead=0;swimlaneBody=0;fontStyle=0;strokeColor=inherit;connectable=0;fillColor=none;startSize=40;collapsible=0;recursiveResize=0;expand=0;fontSize=11;" parent="byc6SguBSszFDmuJhmrP-79" vertex="1">
          <mxGeometry width="60" height="60" as="geometry">
            <mxRectangle width="60" height="60" as="alternateBounds" />
          </mxGeometry>
        </mxCell>
        <mxCell id="byc6SguBSszFDmuJhmrP-166" value="t" style="text;html=1;align=center;verticalAlign=middle;resizable=0;points=[];autosize=1;strokeColor=none;fillColor=none;" parent="byc6SguBSszFDmuJhmrP-155" vertex="1">
          <mxGeometry x="17.5" y="35" width="25" height="30" as="geometry" />
        </mxCell>
        <mxCell id="byc6SguBSszFDmuJhmrP-270" value="Stage 1&#xa;Frame Capture" style="swimlane;swimlaneHead=0;swimlaneBody=0;fontStyle=0;strokeColor=inherit;connectable=0;fillColor=none;startSize=40;collapsible=0;recursiveResize=0;expand=0;fontSize=11;" parent="byc6SguBSszFDmuJhmrP-79" vertex="1">
          <mxGeometry x="60" width="120" height="60" as="geometry">
            <mxRectangle width="120" height="60" as="alternateBounds" />
          </mxGeometry>
        </mxCell>
        <mxCell id="byc6SguBSszFDmuJhmrP-80" value="Stage 2&#xa;Grayscale" style="swimlane;swimlaneHead=0;swimlaneBody=0;fontStyle=0;strokeColor=inherit;connectable=0;fillColor=none;startSize=40;collapsible=0;recursiveResize=0;expand=0;fontSize=11;" parent="byc6SguBSszFDmuJhmrP-79" vertex="1">
          <mxGeometry x="180" width="120" height="60" as="geometry">
            <mxRectangle width="120" height="60" as="alternateBounds" />
          </mxGeometry>
        </mxCell>
        <mxCell id="byc6SguBSszFDmuJhmrP-81" value="Stage 3&#xa;Gaussian Blur" style="swimlane;swimlaneHead=0;swimlaneBody=0;fontStyle=0;strokeColor=inherit;connectable=0;fillColor=none;startSize=40;collapsible=0;recursiveResize=0;expand=0;fontSize=11;" parent="byc6SguBSszFDmuJhmrP-79" vertex="1">
          <mxGeometry x="300" width="120" height="60" as="geometry">
            <mxRectangle width="120" height="60" as="alternateBounds" />
          </mxGeometry>
        </mxCell>
        <mxCell id="byc6SguBSszFDmuJhmrP-82" value="Stage 4&#xa;Histogram Equalisation" style="swimlane;swimlaneHead=0;swimlaneBody=0;fontStyle=0;strokeColor=inherit;connectable=0;fillColor=none;startSize=40;collapsible=0;recursiveResize=0;expand=0;fontSize=11;" parent="byc6SguBSszFDmuJhmrP-79" vertex="1">
          <mxGeometry x="420" width="120" height="60" as="geometry">
            <mxRectangle width="120" height="60" as="alternateBounds" />
          </mxGeometry>
        </mxCell>
        <mxCell id="byc6SguBSszFDmuJhmrP-83" value="Stage 5&#xa;Canny Algorithm" style="swimlane;swimlaneHead=0;swimlaneBody=0;fontStyle=0;strokeColor=inherit;connectable=0;fillColor=none;startSize=40;collapsible=0;recursiveResize=0;expand=0;fontSize=11;" parent="byc6SguBSszFDmuJhmrP-79" vertex="1">
          <mxGeometry x="540" width="120" height="60" as="geometry">
            <mxRectangle width="120" height="60" as="alternateBounds" />
          </mxGeometry>
        </mxCell>
        <mxCell id="byc6SguBSszFDmuJhmrP-84" value="Stage 6&#xa;Particle Segmentation" style="swimlane;swimlaneHead=0;swimlaneBody=0;fontStyle=0;strokeColor=inherit;connectable=0;fillColor=none;startSize=40;collapsible=0;recursiveResize=0;expand=0;fontSize=11;" parent="byc6SguBSszFDmuJhmrP-79" vertex="1">
          <mxGeometry x="660" width="120" height="60" as="geometry">
            <mxRectangle width="120" height="60" as="alternateBounds" />
          </mxGeometry>
        </mxCell>
        <mxCell id="byc6SguBSszFDmuJhmrP-85" value="" style="shape=tableRow;horizontal=0;swimlaneHead=0;swimlaneBody=0;top=0;left=0;strokeColor=inherit;bottom=0;right=0;dropTarget=0;fontStyle=0;fillColor=none;points=[[0,0.5],[1,0.5]];portConstraint=eastwest;startSize=0;collapsible=0;recursiveResize=0;expand=0;fontSize=11;" parent="byc6SguBSszFDmuJhmrP-78" vertex="1">
          <mxGeometry y="100" width="780" height="20" as="geometry" />
        </mxCell>
        <mxCell id="byc6SguBSszFDmuJhmrP-156" style="swimlane;swimlaneHead=0;swimlaneBody=0;fontStyle=0;connectable=0;strokeColor=inherit;fillColor=none;startSize=0;collapsible=0;recursiveResize=0;expand=0;fontSize=11;" parent="byc6SguBSszFDmuJhmrP-85" vertex="1">
          <mxGeometry width="60" height="20" as="geometry">
            <mxRectangle width="60" height="20" as="alternateBounds" />
          </mxGeometry>
        </mxCell>
        <mxCell id="byc6SguBSszFDmuJhmrP-167" value="t + 1" style="text;html=1;align=center;verticalAlign=middle;resizable=0;points=[];autosize=1;strokeColor=none;fillColor=none;" parent="byc6SguBSszFDmuJhmrP-156" vertex="1">
          <mxGeometry x="7.5" y="-5" width="45" height="30" as="geometry" />
        </mxCell>
        <mxCell id="byc6SguBSszFDmuJhmrP-271" style="swimlane;swimlaneHead=0;swimlaneBody=0;fontStyle=0;connectable=0;strokeColor=inherit;fillColor=none;startSize=0;collapsible=0;recursiveResize=0;expand=0;fontSize=11;" parent="byc6SguBSszFDmuJhmrP-85" vertex="1">
          <mxGeometry x="60" width="120" height="20" as="geometry">
            <mxRectangle width="120" height="20" as="alternateBounds" />
          </mxGeometry>
        </mxCell>
        <mxCell id="byc6SguBSszFDmuJhmrP-86" value="" style="swimlane;swimlaneHead=0;swimlaneBody=0;fontStyle=0;connectable=0;strokeColor=inherit;fillColor=none;startSize=0;collapsible=0;recursiveResize=0;expand=0;fontSize=11;" parent="byc6SguBSszFDmuJhmrP-85" vertex="1">
          <mxGeometry x="180" width="120" height="20" as="geometry">
            <mxRectangle width="120" height="20" as="alternateBounds" />
          </mxGeometry>
        </mxCell>
        <mxCell id="byc6SguBSszFDmuJhmrP-193" value="Frame 9" style="rounded=0;whiteSpace=wrap;html=1;fillColor=#dae8fc;strokeColor=#6c8ebf;" parent="byc6SguBSszFDmuJhmrP-86" vertex="1">
          <mxGeometry y="160" width="120" height="20" as="geometry" />
        </mxCell>
        <mxCell id="byc6SguBSszFDmuJhmrP-192" value="Frame 8" style="rounded=0;whiteSpace=wrap;html=1;fillColor=#f5f5f5;strokeColor=#666666;fontColor=#333333;" parent="byc6SguBSszFDmuJhmrP-86" vertex="1">
          <mxGeometry y="140" width="120" height="20" as="geometry" />
        </mxCell>
        <mxCell id="byc6SguBSszFDmuJhmrP-191" value="Frame 7" style="rounded=0;whiteSpace=wrap;html=1;fillColor=#e1d5e7;strokeColor=#9673a6;" parent="byc6SguBSszFDmuJhmrP-86" vertex="1">
          <mxGeometry y="120" width="120" height="20" as="geometry" />
        </mxCell>
        <mxCell id="byc6SguBSszFDmuJhmrP-190" value="Frame 6" style="rounded=0;whiteSpace=wrap;html=1;fillColor=#f8cecc;strokeColor=#b85450;" parent="byc6SguBSszFDmuJhmrP-86" vertex="1">
          <mxGeometry y="100" width="120" height="20" as="geometry" />
        </mxCell>
        <mxCell id="byc6SguBSszFDmuJhmrP-189" value="Frame 5" style="rounded=0;whiteSpace=wrap;html=1;fillColor=#fff2cc;strokeColor=#d6b656;" parent="byc6SguBSszFDmuJhmrP-86" vertex="1">
          <mxGeometry y="80" width="120" height="20" as="geometry" />
        </mxCell>
        <mxCell id="byc6SguBSszFDmuJhmrP-188" value="Frame 4" style="rounded=0;whiteSpace=wrap;html=1;fillColor=#ffe6cc;strokeColor=#d79b00;" parent="byc6SguBSszFDmuJhmrP-86" vertex="1">
          <mxGeometry y="60" width="120" height="20" as="geometry" />
        </mxCell>
        <mxCell id="byc6SguBSszFDmuJhmrP-187" value="Frame 3" style="rounded=0;whiteSpace=wrap;html=1;fillColor=#d5e8d4;strokeColor=#82b366;" parent="byc6SguBSszFDmuJhmrP-86" vertex="1">
          <mxGeometry y="40" width="120" height="20" as="geometry" />
        </mxCell>
        <mxCell id="byc6SguBSszFDmuJhmrP-182" value="Frame 2" style="rounded=0;whiteSpace=wrap;html=1;fillColor=#dae8fc;strokeColor=#6c8ebf;" parent="byc6SguBSszFDmuJhmrP-86" vertex="1">
          <mxGeometry y="20" width="120" height="20" as="geometry" />
        </mxCell>
        <mxCell id="byc6SguBSszFDmuJhmrP-177" value="Frame 1" style="rounded=0;whiteSpace=wrap;html=1;fillColor=#f5f5f5;strokeColor=#666666;fontColor=#333333;" parent="byc6SguBSszFDmuJhmrP-86" vertex="1">
          <mxGeometry width="120" height="20" as="geometry" />
        </mxCell>
        <mxCell id="byc6SguBSszFDmuJhmrP-87" value="" style="swimlane;swimlaneHead=0;swimlaneBody=0;fontStyle=0;connectable=0;strokeColor=inherit;fillColor=none;startSize=0;collapsible=0;recursiveResize=0;expand=0;fontSize=11;" parent="byc6SguBSszFDmuJhmrP-85" vertex="1">
          <mxGeometry x="300" width="120" height="20" as="geometry">
            <mxRectangle width="120" height="20" as="alternateBounds" />
          </mxGeometry>
        </mxCell>
        <mxCell id="byc6SguBSszFDmuJhmrP-88" value="" style="swimlane;swimlaneHead=0;swimlaneBody=0;fontStyle=0;connectable=0;strokeColor=inherit;fillColor=none;startSize=0;collapsible=0;recursiveResize=0;expand=0;fontSize=11;" parent="byc6SguBSszFDmuJhmrP-85" vertex="1">
          <mxGeometry x="420" width="120" height="20" as="geometry">
            <mxRectangle width="120" height="20" as="alternateBounds" />
          </mxGeometry>
        </mxCell>
        <mxCell id="byc6SguBSszFDmuJhmrP-89" value="" style="swimlane;swimlaneHead=0;swimlaneBody=0;fontStyle=0;connectable=0;strokeColor=inherit;fillColor=none;startSize=0;collapsible=0;recursiveResize=0;expand=0;fontSize=11;" parent="byc6SguBSszFDmuJhmrP-85" vertex="1">
          <mxGeometry x="540" width="120" height="20" as="geometry">
            <mxRectangle width="120" height="20" as="alternateBounds" />
          </mxGeometry>
        </mxCell>
        <mxCell id="byc6SguBSszFDmuJhmrP-90" value="" style="swimlane;swimlaneHead=0;swimlaneBody=0;fontStyle=0;connectable=0;strokeColor=inherit;fillColor=none;startSize=0;collapsible=0;recursiveResize=0;expand=0;fontSize=11;" parent="byc6SguBSszFDmuJhmrP-85" vertex="1">
          <mxGeometry x="660" width="120" height="20" as="geometry">
            <mxRectangle width="120" height="20" as="alternateBounds" />
          </mxGeometry>
        </mxCell>
        <mxCell id="byc6SguBSszFDmuJhmrP-91" value="" style="shape=tableRow;horizontal=0;swimlaneHead=0;swimlaneBody=0;top=0;left=0;strokeColor=inherit;bottom=0;right=0;dropTarget=0;fontStyle=0;fillColor=none;points=[[0,0.5],[1,0.5]];portConstraint=eastwest;startSize=0;collapsible=0;recursiveResize=0;expand=0;fontSize=11;" parent="byc6SguBSszFDmuJhmrP-78" vertex="1">
          <mxGeometry y="120" width="780" height="20" as="geometry" />
        </mxCell>
        <mxCell id="byc6SguBSszFDmuJhmrP-157" style="swimlane;swimlaneHead=0;swimlaneBody=0;fontStyle=0;connectable=0;strokeColor=inherit;fillColor=none;startSize=0;collapsible=0;recursiveResize=0;expand=0;fontSize=11;" parent="byc6SguBSszFDmuJhmrP-91" vertex="1">
          <mxGeometry width="60" height="20" as="geometry">
            <mxRectangle width="60" height="20" as="alternateBounds" />
          </mxGeometry>
        </mxCell>
        <mxCell id="byc6SguBSszFDmuJhmrP-168" value="t + 2" style="text;html=1;align=center;verticalAlign=middle;resizable=0;points=[];autosize=1;strokeColor=none;fillColor=none;" parent="byc6SguBSszFDmuJhmrP-157" vertex="1">
          <mxGeometry x="7.5" y="-5" width="45" height="30" as="geometry" />
        </mxCell>
        <mxCell id="byc6SguBSszFDmuJhmrP-272" style="swimlane;swimlaneHead=0;swimlaneBody=0;fontStyle=0;connectable=0;strokeColor=inherit;fillColor=none;startSize=0;collapsible=0;recursiveResize=0;expand=0;fontSize=11;" parent="byc6SguBSszFDmuJhmrP-91" vertex="1">
          <mxGeometry x="60" width="120" height="20" as="geometry">
            <mxRectangle width="120" height="20" as="alternateBounds" />
          </mxGeometry>
        </mxCell>
        <mxCell id="byc6SguBSszFDmuJhmrP-92" value="" style="swimlane;swimlaneHead=0;swimlaneBody=0;fontStyle=0;connectable=0;strokeColor=inherit;fillColor=none;startSize=0;collapsible=0;recursiveResize=0;expand=0;fontSize=11;" parent="byc6SguBSszFDmuJhmrP-91" vertex="1">
          <mxGeometry x="180" width="120" height="20" as="geometry">
            <mxRectangle width="120" height="20" as="alternateBounds" />
          </mxGeometry>
        </mxCell>
        <mxCell id="byc6SguBSszFDmuJhmrP-93" value="" style="swimlane;swimlaneHead=0;swimlaneBody=0;fontStyle=0;connectable=0;strokeColor=inherit;fillColor=none;startSize=0;collapsible=0;recursiveResize=0;expand=0;fontSize=11;" parent="byc6SguBSszFDmuJhmrP-91" vertex="1">
          <mxGeometry x="300" width="120" height="20" as="geometry">
            <mxRectangle width="120" height="20" as="alternateBounds" />
          </mxGeometry>
        </mxCell>
        <mxCell id="byc6SguBSszFDmuJhmrP-195" value="Frame 1" style="rounded=0;whiteSpace=wrap;html=1;fillColor=#f5f5f5;strokeColor=#666666;fontColor=#333333;" parent="byc6SguBSszFDmuJhmrP-93" vertex="1">
          <mxGeometry width="120" height="20" as="geometry" />
        </mxCell>
        <mxCell id="byc6SguBSszFDmuJhmrP-196" value="Frame 2" style="rounded=0;whiteSpace=wrap;html=1;fillColor=#dae8fc;strokeColor=#6c8ebf;" parent="byc6SguBSszFDmuJhmrP-93" vertex="1">
          <mxGeometry y="20" width="120" height="20" as="geometry" />
        </mxCell>
        <mxCell id="byc6SguBSszFDmuJhmrP-197" value="Frame 3" style="rounded=0;whiteSpace=wrap;html=1;fillColor=#d5e8d4;strokeColor=#82b366;" parent="byc6SguBSszFDmuJhmrP-93" vertex="1">
          <mxGeometry y="40" width="120" height="20" as="geometry" />
        </mxCell>
        <mxCell id="byc6SguBSszFDmuJhmrP-198" value="Frame 4" style="rounded=0;whiteSpace=wrap;html=1;fillColor=#ffe6cc;strokeColor=#d79b00;" parent="byc6SguBSszFDmuJhmrP-93" vertex="1">
          <mxGeometry y="60" width="120" height="20" as="geometry" />
        </mxCell>
        <mxCell id="byc6SguBSszFDmuJhmrP-199" value="Frame 5" style="rounded=0;whiteSpace=wrap;html=1;fillColor=#fff2cc;strokeColor=#d6b656;" parent="byc6SguBSszFDmuJhmrP-93" vertex="1">
          <mxGeometry y="80" width="120" height="20" as="geometry" />
        </mxCell>
        <mxCell id="byc6SguBSszFDmuJhmrP-200" value="Frame 6" style="rounded=0;whiteSpace=wrap;html=1;fillColor=#f8cecc;strokeColor=#b85450;" parent="byc6SguBSszFDmuJhmrP-93" vertex="1">
          <mxGeometry y="100" width="120" height="20" as="geometry" />
        </mxCell>
        <mxCell id="byc6SguBSszFDmuJhmrP-201" value="Frame 7" style="rounded=0;whiteSpace=wrap;html=1;fillColor=#e1d5e7;strokeColor=#9673a6;" parent="byc6SguBSszFDmuJhmrP-93" vertex="1">
          <mxGeometry y="120" width="120" height="20" as="geometry" />
        </mxCell>
        <mxCell id="byc6SguBSszFDmuJhmrP-202" value="Frame 8" style="rounded=0;whiteSpace=wrap;html=1;fillColor=#f5f5f5;strokeColor=#666666;fontColor=#333333;" parent="byc6SguBSszFDmuJhmrP-93" vertex="1">
          <mxGeometry y="140" width="120" height="20" as="geometry" />
        </mxCell>
        <mxCell id="byc6SguBSszFDmuJhmrP-94" value="" style="swimlane;swimlaneHead=0;swimlaneBody=0;fontStyle=0;connectable=0;strokeColor=inherit;fillColor=none;startSize=0;collapsible=0;recursiveResize=0;expand=0;fontSize=11;" parent="byc6SguBSszFDmuJhmrP-91" vertex="1">
          <mxGeometry x="420" width="120" height="20" as="geometry">
            <mxRectangle width="120" height="20" as="alternateBounds" />
          </mxGeometry>
        </mxCell>
        <mxCell id="byc6SguBSszFDmuJhmrP-95" value="" style="swimlane;swimlaneHead=0;swimlaneBody=0;fontStyle=0;connectable=0;strokeColor=inherit;fillColor=none;startSize=0;collapsible=0;recursiveResize=0;expand=0;fontSize=11;" parent="byc6SguBSszFDmuJhmrP-91" vertex="1">
          <mxGeometry x="540" width="120" height="20" as="geometry">
            <mxRectangle width="120" height="20" as="alternateBounds" />
          </mxGeometry>
        </mxCell>
        <mxCell id="byc6SguBSszFDmuJhmrP-96" value="" style="swimlane;swimlaneHead=0;swimlaneBody=0;fontStyle=0;connectable=0;strokeColor=inherit;fillColor=none;startSize=0;collapsible=0;recursiveResize=0;expand=0;fontSize=11;" parent="byc6SguBSszFDmuJhmrP-91" vertex="1">
          <mxGeometry x="660" width="120" height="20" as="geometry">
            <mxRectangle width="120" height="20" as="alternateBounds" />
          </mxGeometry>
        </mxCell>
        <mxCell id="byc6SguBSszFDmuJhmrP-97" value="" style="shape=tableRow;horizontal=0;swimlaneHead=0;swimlaneBody=0;top=0;left=0;strokeColor=inherit;bottom=0;right=0;dropTarget=0;fontStyle=0;fillColor=none;points=[[0,0.5],[1,0.5]];portConstraint=eastwest;startSize=0;collapsible=0;recursiveResize=0;expand=0;fontSize=11;" parent="byc6SguBSszFDmuJhmrP-78" vertex="1">
          <mxGeometry y="140" width="780" height="20" as="geometry" />
        </mxCell>
        <mxCell id="byc6SguBSszFDmuJhmrP-158" style="swimlane;swimlaneHead=0;swimlaneBody=0;fontStyle=0;connectable=0;strokeColor=inherit;fillColor=none;startSize=0;collapsible=0;recursiveResize=0;expand=0;fontSize=11;" parent="byc6SguBSszFDmuJhmrP-97" vertex="1">
          <mxGeometry width="60" height="20" as="geometry">
            <mxRectangle width="60" height="20" as="alternateBounds" />
          </mxGeometry>
        </mxCell>
        <mxCell id="byc6SguBSszFDmuJhmrP-273" style="swimlane;swimlaneHead=0;swimlaneBody=0;fontStyle=0;connectable=0;strokeColor=inherit;fillColor=none;startSize=0;collapsible=0;recursiveResize=0;expand=0;fontSize=11;" parent="byc6SguBSszFDmuJhmrP-97" vertex="1">
          <mxGeometry x="60" width="120" height="20" as="geometry">
            <mxRectangle width="120" height="20" as="alternateBounds" />
          </mxGeometry>
        </mxCell>
        <mxCell id="byc6SguBSszFDmuJhmrP-98" value="" style="swimlane;swimlaneHead=0;swimlaneBody=0;fontStyle=0;connectable=0;strokeColor=inherit;fillColor=none;startSize=0;collapsible=0;recursiveResize=0;expand=0;fontSize=11;" parent="byc6SguBSszFDmuJhmrP-97" vertex="1">
          <mxGeometry x="180" width="120" height="20" as="geometry">
            <mxRectangle width="120" height="20" as="alternateBounds" />
          </mxGeometry>
        </mxCell>
        <mxCell id="byc6SguBSszFDmuJhmrP-99" value="" style="swimlane;swimlaneHead=0;swimlaneBody=0;fontStyle=0;connectable=0;strokeColor=inherit;fillColor=none;startSize=0;collapsible=0;recursiveResize=0;expand=0;fontSize=11;" parent="byc6SguBSszFDmuJhmrP-97" vertex="1">
          <mxGeometry x="300" width="120" height="20" as="geometry">
            <mxRectangle width="120" height="20" as="alternateBounds" />
          </mxGeometry>
        </mxCell>
        <mxCell id="byc6SguBSszFDmuJhmrP-100" value="" style="swimlane;swimlaneHead=0;swimlaneBody=0;fontStyle=0;connectable=0;strokeColor=inherit;fillColor=none;startSize=0;collapsible=0;recursiveResize=0;expand=0;fontSize=11;" parent="byc6SguBSszFDmuJhmrP-97" vertex="1">
          <mxGeometry x="420" width="120" height="20" as="geometry">
            <mxRectangle width="120" height="20" as="alternateBounds" />
          </mxGeometry>
        </mxCell>
        <mxCell id="byc6SguBSszFDmuJhmrP-101" value="" style="swimlane;swimlaneHead=0;swimlaneBody=0;fontStyle=0;connectable=0;strokeColor=inherit;fillColor=none;startSize=0;collapsible=0;recursiveResize=0;expand=0;fontSize=11;" parent="byc6SguBSszFDmuJhmrP-97" vertex="1">
          <mxGeometry x="540" width="120" height="20" as="geometry">
            <mxRectangle width="120" height="20" as="alternateBounds" />
          </mxGeometry>
        </mxCell>
        <mxCell id="byc6SguBSszFDmuJhmrP-102" value="" style="swimlane;swimlaneHead=0;swimlaneBody=0;fontStyle=0;connectable=0;strokeColor=inherit;fillColor=none;startSize=0;collapsible=0;recursiveResize=0;expand=0;fontSize=11;" parent="byc6SguBSszFDmuJhmrP-97" vertex="1">
          <mxGeometry x="660" width="120" height="20" as="geometry">
            <mxRectangle width="120" height="20" as="alternateBounds" />
          </mxGeometry>
        </mxCell>
        <mxCell id="byc6SguBSszFDmuJhmrP-103" value="" style="shape=tableRow;horizontal=0;swimlaneHead=0;swimlaneBody=0;top=0;left=0;strokeColor=inherit;bottom=0;right=0;dropTarget=0;fontStyle=0;fillColor=none;points=[[0,0.5],[1,0.5]];portConstraint=eastwest;startSize=0;collapsible=0;recursiveResize=0;expand=0;fontSize=11;" parent="byc6SguBSszFDmuJhmrP-78" vertex="1">
          <mxGeometry y="160" width="780" height="20" as="geometry" />
        </mxCell>
        <mxCell id="byc6SguBSszFDmuJhmrP-159" style="swimlane;swimlaneHead=0;swimlaneBody=0;fontStyle=0;connectable=0;strokeColor=inherit;fillColor=none;startSize=0;collapsible=0;recursiveResize=0;expand=0;fontSize=11;" parent="byc6SguBSszFDmuJhmrP-103" vertex="1">
          <mxGeometry width="60" height="20" as="geometry">
            <mxRectangle width="60" height="20" as="alternateBounds" />
          </mxGeometry>
        </mxCell>
        <mxCell id="byc6SguBSszFDmuJhmrP-274" style="swimlane;swimlaneHead=0;swimlaneBody=0;fontStyle=0;connectable=0;strokeColor=inherit;fillColor=none;startSize=0;collapsible=0;recursiveResize=0;expand=0;fontSize=11;" parent="byc6SguBSszFDmuJhmrP-103" vertex="1">
          <mxGeometry x="60" width="120" height="20" as="geometry">
            <mxRectangle width="120" height="20" as="alternateBounds" />
          </mxGeometry>
        </mxCell>
        <mxCell id="byc6SguBSszFDmuJhmrP-104" value="" style="swimlane;swimlaneHead=0;swimlaneBody=0;fontStyle=0;connectable=0;strokeColor=inherit;fillColor=none;startSize=0;collapsible=0;recursiveResize=0;expand=0;fontSize=11;" parent="byc6SguBSszFDmuJhmrP-103" vertex="1">
          <mxGeometry x="180" width="120" height="20" as="geometry">
            <mxRectangle width="120" height="20" as="alternateBounds" />
          </mxGeometry>
        </mxCell>
        <mxCell id="byc6SguBSszFDmuJhmrP-105" value="" style="swimlane;swimlaneHead=0;swimlaneBody=0;fontStyle=0;connectable=0;strokeColor=inherit;fillColor=none;startSize=0;collapsible=0;recursiveResize=0;expand=0;fontSize=11;" parent="byc6SguBSszFDmuJhmrP-103" vertex="1">
          <mxGeometry x="300" width="120" height="20" as="geometry">
            <mxRectangle width="120" height="20" as="alternateBounds" />
          </mxGeometry>
        </mxCell>
        <mxCell id="byc6SguBSszFDmuJhmrP-106" value="" style="swimlane;swimlaneHead=0;swimlaneBody=0;fontStyle=0;connectable=0;strokeColor=inherit;fillColor=none;startSize=0;collapsible=0;recursiveResize=0;expand=0;fontSize=11;" parent="byc6SguBSszFDmuJhmrP-103" vertex="1">
          <mxGeometry x="420" width="120" height="20" as="geometry">
            <mxRectangle width="120" height="20" as="alternateBounds" />
          </mxGeometry>
        </mxCell>
        <mxCell id="byc6SguBSszFDmuJhmrP-107" value="" style="swimlane;swimlaneHead=0;swimlaneBody=0;fontStyle=0;connectable=0;strokeColor=inherit;fillColor=none;startSize=0;collapsible=0;recursiveResize=0;expand=0;fontSize=11;" parent="byc6SguBSszFDmuJhmrP-103" vertex="1">
          <mxGeometry x="540" width="120" height="20" as="geometry">
            <mxRectangle width="120" height="20" as="alternateBounds" />
          </mxGeometry>
        </mxCell>
        <mxCell id="byc6SguBSszFDmuJhmrP-108" value="" style="swimlane;swimlaneHead=0;swimlaneBody=0;fontStyle=0;connectable=0;strokeColor=inherit;fillColor=none;startSize=0;collapsible=0;recursiveResize=0;expand=0;fontSize=11;" parent="byc6SguBSszFDmuJhmrP-103" vertex="1">
          <mxGeometry x="660" width="120" height="20" as="geometry">
            <mxRectangle width="120" height="20" as="alternateBounds" />
          </mxGeometry>
        </mxCell>
        <mxCell id="byc6SguBSszFDmuJhmrP-109" value="" style="shape=tableRow;horizontal=0;swimlaneHead=0;swimlaneBody=0;top=0;left=0;strokeColor=inherit;bottom=0;right=0;dropTarget=0;fontStyle=0;fillColor=none;points=[[0,0.5],[1,0.5]];portConstraint=eastwest;startSize=0;collapsible=0;recursiveResize=0;expand=0;fontSize=11;" parent="byc6SguBSszFDmuJhmrP-78" vertex="1">
          <mxGeometry y="180" width="780" height="20" as="geometry" />
        </mxCell>
        <mxCell id="byc6SguBSszFDmuJhmrP-160" style="swimlane;swimlaneHead=0;swimlaneBody=0;fontStyle=0;connectable=0;strokeColor=inherit;fillColor=none;startSize=0;collapsible=0;recursiveResize=0;expand=0;fontSize=11;" parent="byc6SguBSszFDmuJhmrP-109" vertex="1">
          <mxGeometry width="60" height="20" as="geometry">
            <mxRectangle width="60" height="20" as="alternateBounds" />
          </mxGeometry>
        </mxCell>
        <mxCell id="byc6SguBSszFDmuJhmrP-169" value="t + 3" style="text;html=1;align=center;verticalAlign=middle;resizable=0;points=[];autosize=1;strokeColor=none;fillColor=none;" parent="byc6SguBSszFDmuJhmrP-160" vertex="1">
          <mxGeometry x="7.5" y="-45" width="45" height="30" as="geometry" />
        </mxCell>
        <mxCell id="byc6SguBSszFDmuJhmrP-170" value="t + 4" style="text;html=1;align=center;verticalAlign=middle;resizable=0;points=[];autosize=1;strokeColor=none;fillColor=none;" parent="byc6SguBSszFDmuJhmrP-160" vertex="1">
          <mxGeometry x="7.5" y="-25" width="45" height="30" as="geometry" />
        </mxCell>
        <mxCell id="byc6SguBSszFDmuJhmrP-171" value="t + 5" style="text;html=1;align=center;verticalAlign=middle;resizable=0;points=[];autosize=1;strokeColor=none;fillColor=none;" parent="byc6SguBSszFDmuJhmrP-160" vertex="1">
          <mxGeometry x="7.5" y="-5" width="45" height="30" as="geometry" />
        </mxCell>
        <mxCell id="byc6SguBSszFDmuJhmrP-275" style="swimlane;swimlaneHead=0;swimlaneBody=0;fontStyle=0;connectable=0;strokeColor=inherit;fillColor=none;startSize=0;collapsible=0;recursiveResize=0;expand=0;fontSize=11;" parent="byc6SguBSszFDmuJhmrP-109" vertex="1">
          <mxGeometry x="60" width="120" height="20" as="geometry">
            <mxRectangle width="120" height="20" as="alternateBounds" />
          </mxGeometry>
        </mxCell>
        <mxCell id="byc6SguBSszFDmuJhmrP-110" value="" style="swimlane;swimlaneHead=0;swimlaneBody=0;fontStyle=0;connectable=0;strokeColor=inherit;fillColor=none;startSize=0;collapsible=0;recursiveResize=0;expand=0;fontSize=11;" parent="byc6SguBSszFDmuJhmrP-109" vertex="1">
          <mxGeometry x="180" width="120" height="20" as="geometry">
            <mxRectangle width="120" height="20" as="alternateBounds" />
          </mxGeometry>
        </mxCell>
        <mxCell id="byc6SguBSszFDmuJhmrP-111" value="" style="swimlane;swimlaneHead=0;swimlaneBody=0;fontStyle=0;connectable=0;strokeColor=inherit;fillColor=none;startSize=0;collapsible=0;recursiveResize=0;expand=0;fontSize=11;" parent="byc6SguBSszFDmuJhmrP-109" vertex="1">
          <mxGeometry x="300" width="120" height="20" as="geometry">
            <mxRectangle width="120" height="20" as="alternateBounds" />
          </mxGeometry>
        </mxCell>
        <mxCell id="byc6SguBSszFDmuJhmrP-112" value="" style="swimlane;swimlaneHead=0;swimlaneBody=0;fontStyle=0;connectable=0;strokeColor=inherit;fillColor=none;startSize=0;collapsible=0;recursiveResize=0;expand=0;fontSize=11;" parent="byc6SguBSszFDmuJhmrP-109" vertex="1">
          <mxGeometry x="420" width="120" height="20" as="geometry">
            <mxRectangle width="120" height="20" as="alternateBounds" />
          </mxGeometry>
        </mxCell>
        <mxCell id="byc6SguBSszFDmuJhmrP-113" value="" style="swimlane;swimlaneHead=0;swimlaneBody=0;fontStyle=0;connectable=0;strokeColor=inherit;fillColor=none;startSize=0;collapsible=0;recursiveResize=0;expand=0;fontSize=11;" parent="byc6SguBSszFDmuJhmrP-109" vertex="1">
          <mxGeometry x="540" width="120" height="20" as="geometry">
            <mxRectangle width="120" height="20" as="alternateBounds" />
          </mxGeometry>
        </mxCell>
        <mxCell id="byc6SguBSszFDmuJhmrP-114" value="" style="swimlane;swimlaneHead=0;swimlaneBody=0;fontStyle=0;connectable=0;strokeColor=inherit;fillColor=none;startSize=0;collapsible=0;recursiveResize=0;expand=0;fontSize=11;" parent="byc6SguBSszFDmuJhmrP-109" vertex="1">
          <mxGeometry x="660" width="120" height="20" as="geometry">
            <mxRectangle width="120" height="20" as="alternateBounds" />
          </mxGeometry>
        </mxCell>
        <mxCell id="byc6SguBSszFDmuJhmrP-115" value="" style="shape=tableRow;horizontal=0;swimlaneHead=0;swimlaneBody=0;top=0;left=0;strokeColor=inherit;bottom=0;right=0;dropTarget=0;fontStyle=0;fillColor=none;points=[[0,0.5],[1,0.5]];portConstraint=eastwest;startSize=0;collapsible=0;recursiveResize=0;expand=0;fontSize=11;" parent="byc6SguBSszFDmuJhmrP-78" vertex="1">
          <mxGeometry y="200" width="780" height="20" as="geometry" />
        </mxCell>
        <mxCell id="byc6SguBSszFDmuJhmrP-161" style="swimlane;swimlaneHead=0;swimlaneBody=0;fontStyle=0;connectable=0;strokeColor=inherit;fillColor=none;startSize=0;collapsible=0;recursiveResize=0;expand=0;fontSize=11;" parent="byc6SguBSszFDmuJhmrP-115" vertex="1">
          <mxGeometry width="60" height="20" as="geometry">
            <mxRectangle width="60" height="20" as="alternateBounds" />
          </mxGeometry>
        </mxCell>
        <mxCell id="byc6SguBSszFDmuJhmrP-276" style="swimlane;swimlaneHead=0;swimlaneBody=0;fontStyle=0;connectable=0;strokeColor=inherit;fillColor=none;startSize=0;collapsible=0;recursiveResize=0;expand=0;fontSize=11;" parent="byc6SguBSszFDmuJhmrP-115" vertex="1">
          <mxGeometry x="60" width="120" height="20" as="geometry">
            <mxRectangle width="120" height="20" as="alternateBounds" />
          </mxGeometry>
        </mxCell>
        <mxCell id="byc6SguBSszFDmuJhmrP-116" value="" style="swimlane;swimlaneHead=0;swimlaneBody=0;fontStyle=0;connectable=0;strokeColor=inherit;fillColor=none;startSize=0;collapsible=0;recursiveResize=0;expand=0;fontSize=11;" parent="byc6SguBSszFDmuJhmrP-115" vertex="1">
          <mxGeometry x="180" width="120" height="20" as="geometry">
            <mxRectangle width="120" height="20" as="alternateBounds" />
          </mxGeometry>
        </mxCell>
        <mxCell id="byc6SguBSszFDmuJhmrP-117" value="" style="swimlane;swimlaneHead=0;swimlaneBody=0;fontStyle=0;connectable=0;strokeColor=inherit;fillColor=none;startSize=0;collapsible=0;recursiveResize=0;expand=0;fontSize=11;" parent="byc6SguBSszFDmuJhmrP-115" vertex="1">
          <mxGeometry x="300" width="120" height="20" as="geometry">
            <mxRectangle width="120" height="20" as="alternateBounds" />
          </mxGeometry>
        </mxCell>
        <mxCell id="byc6SguBSszFDmuJhmrP-118" value="" style="swimlane;swimlaneHead=0;swimlaneBody=0;fontStyle=0;connectable=0;strokeColor=inherit;fillColor=none;startSize=0;collapsible=0;recursiveResize=0;expand=0;fontSize=11;" parent="byc6SguBSszFDmuJhmrP-115" vertex="1">
          <mxGeometry x="420" width="120" height="20" as="geometry">
            <mxRectangle width="120" height="20" as="alternateBounds" />
          </mxGeometry>
        </mxCell>
        <mxCell id="byc6SguBSszFDmuJhmrP-119" value="" style="swimlane;swimlaneHead=0;swimlaneBody=0;fontStyle=0;connectable=0;strokeColor=inherit;fillColor=none;startSize=0;collapsible=0;recursiveResize=0;expand=0;fontSize=11;" parent="byc6SguBSszFDmuJhmrP-115" vertex="1">
          <mxGeometry x="540" width="120" height="20" as="geometry">
            <mxRectangle width="120" height="20" as="alternateBounds" />
          </mxGeometry>
        </mxCell>
        <mxCell id="byc6SguBSszFDmuJhmrP-120" value="" style="swimlane;swimlaneHead=0;swimlaneBody=0;fontStyle=0;connectable=0;strokeColor=inherit;fillColor=none;startSize=0;collapsible=0;recursiveResize=0;expand=0;fontSize=11;" parent="byc6SguBSszFDmuJhmrP-115" vertex="1">
          <mxGeometry x="660" width="120" height="20" as="geometry">
            <mxRectangle width="120" height="20" as="alternateBounds" />
          </mxGeometry>
        </mxCell>
        <mxCell id="byc6SguBSszFDmuJhmrP-121" value="" style="shape=tableRow;horizontal=0;swimlaneHead=0;swimlaneBody=0;top=0;left=0;strokeColor=inherit;bottom=0;right=0;dropTarget=0;fontStyle=0;fillColor=none;points=[[0,0.5],[1,0.5]];portConstraint=eastwest;startSize=0;collapsible=0;recursiveResize=0;expand=0;fontSize=11;" parent="byc6SguBSszFDmuJhmrP-78" vertex="1">
          <mxGeometry y="220" width="780" height="20" as="geometry" />
        </mxCell>
        <mxCell id="byc6SguBSszFDmuJhmrP-162" style="swimlane;swimlaneHead=0;swimlaneBody=0;fontStyle=0;connectable=0;strokeColor=inherit;fillColor=none;startSize=0;collapsible=0;recursiveResize=0;expand=0;fontSize=11;" parent="byc6SguBSszFDmuJhmrP-121" vertex="1">
          <mxGeometry width="60" height="20" as="geometry">
            <mxRectangle width="60" height="20" as="alternateBounds" />
          </mxGeometry>
        </mxCell>
        <mxCell id="byc6SguBSszFDmuJhmrP-277" style="swimlane;swimlaneHead=0;swimlaneBody=0;fontStyle=0;connectable=0;strokeColor=inherit;fillColor=none;startSize=0;collapsible=0;recursiveResize=0;expand=0;fontSize=11;" parent="byc6SguBSszFDmuJhmrP-121" vertex="1">
          <mxGeometry x="60" width="120" height="20" as="geometry">
            <mxRectangle width="120" height="20" as="alternateBounds" />
          </mxGeometry>
        </mxCell>
        <mxCell id="byc6SguBSszFDmuJhmrP-282" value="Frame 1" style="rounded=0;whiteSpace=wrap;html=1;fillColor=#f5f5f5;strokeColor=#666666;fontColor=#333333;" parent="byc6SguBSszFDmuJhmrP-277" vertex="1">
          <mxGeometry y="-140" width="120" height="20" as="geometry" />
        </mxCell>
        <mxCell id="byc6SguBSszFDmuJhmrP-283" value="Frame 2" style="rounded=0;whiteSpace=wrap;html=1;fillColor=#dae8fc;strokeColor=#6c8ebf;" parent="byc6SguBSszFDmuJhmrP-277" vertex="1">
          <mxGeometry y="-120" width="120" height="20" as="geometry" />
        </mxCell>
        <mxCell id="byc6SguBSszFDmuJhmrP-284" value="Frame 3" style="rounded=0;whiteSpace=wrap;html=1;fillColor=#d5e8d4;strokeColor=#82b366;" parent="byc6SguBSszFDmuJhmrP-277" vertex="1">
          <mxGeometry y="-100" width="120" height="20" as="geometry" />
        </mxCell>
        <mxCell id="byc6SguBSszFDmuJhmrP-285" value="Frame 4" style="rounded=0;whiteSpace=wrap;html=1;fillColor=#ffe6cc;strokeColor=#d79b00;" parent="byc6SguBSszFDmuJhmrP-277" vertex="1">
          <mxGeometry y="-80" width="120" height="20" as="geometry" />
        </mxCell>
        <mxCell id="byc6SguBSszFDmuJhmrP-286" value="Frame 5" style="rounded=0;whiteSpace=wrap;html=1;fillColor=#fff2cc;strokeColor=#d6b656;" parent="byc6SguBSszFDmuJhmrP-277" vertex="1">
          <mxGeometry y="-60" width="120" height="20" as="geometry" />
        </mxCell>
        <mxCell id="byc6SguBSszFDmuJhmrP-287" value="Frame 6" style="rounded=0;whiteSpace=wrap;html=1;fillColor=#f8cecc;strokeColor=#b85450;" parent="byc6SguBSszFDmuJhmrP-277" vertex="1">
          <mxGeometry y="-40" width="120" height="20" as="geometry" />
        </mxCell>
        <mxCell id="byc6SguBSszFDmuJhmrP-288" value="Frame 7" style="rounded=0;whiteSpace=wrap;html=1;fillColor=#e1d5e7;strokeColor=#9673a6;" parent="byc6SguBSszFDmuJhmrP-277" vertex="1">
          <mxGeometry y="-20" width="120" height="20" as="geometry" />
        </mxCell>
        <mxCell id="byc6SguBSszFDmuJhmrP-289" value="Frame 8" style="rounded=0;whiteSpace=wrap;html=1;fillColor=#f5f5f5;strokeColor=#666666;fontColor=#333333;" parent="byc6SguBSszFDmuJhmrP-277" vertex="1">
          <mxGeometry width="120" height="20" as="geometry" />
        </mxCell>
        <mxCell id="byc6SguBSszFDmuJhmrP-290" value="Frame 9" style="rounded=0;whiteSpace=wrap;html=1;fillColor=#dae8fc;strokeColor=#6c8ebf;" parent="byc6SguBSszFDmuJhmrP-277" vertex="1">
          <mxGeometry y="20" width="120" height="20" as="geometry" />
        </mxCell>
        <mxCell id="byc6SguBSszFDmuJhmrP-291" value="Frame 10" style="rounded=0;whiteSpace=wrap;html=1;fillColor=#d5e8d4;strokeColor=#82b366;" parent="byc6SguBSszFDmuJhmrP-277" vertex="1">
          <mxGeometry y="40" width="120" height="20" as="geometry" />
        </mxCell>
        <mxCell id="byc6SguBSszFDmuJhmrP-292" value="..." style="text;html=1;align=center;verticalAlign=middle;resizable=0;points=[];autosize=1;strokeColor=none;fillColor=none;" parent="byc6SguBSszFDmuJhmrP-277" vertex="1">
          <mxGeometry x="45" y="55" width="30" height="30" as="geometry" />
        </mxCell>
        <mxCell id="byc6SguBSszFDmuJhmrP-293" value="Frame n + 5" style="rounded=0;whiteSpace=wrap;html=1;fillColor=#f5f5f5;strokeColor=#666666;fontColor=#333333;" parent="byc6SguBSszFDmuJhmrP-277" vertex="1">
          <mxGeometry y="80" width="120" height="20" as="geometry" />
        </mxCell>
        <mxCell id="byc6SguBSszFDmuJhmrP-122" value="" style="swimlane;swimlaneHead=0;swimlaneBody=0;fontStyle=0;connectable=0;strokeColor=inherit;fillColor=none;startSize=0;collapsible=0;recursiveResize=0;expand=0;fontSize=11;" parent="byc6SguBSszFDmuJhmrP-121" vertex="1">
          <mxGeometry x="180" width="120" height="20" as="geometry">
            <mxRectangle width="120" height="20" as="alternateBounds" />
          </mxGeometry>
        </mxCell>
        <mxCell id="byc6SguBSszFDmuJhmrP-123" value="" style="swimlane;swimlaneHead=0;swimlaneBody=0;fontStyle=0;connectable=0;strokeColor=inherit;fillColor=none;startSize=0;collapsible=0;recursiveResize=0;expand=0;fontSize=11;" parent="byc6SguBSszFDmuJhmrP-121" vertex="1">
          <mxGeometry x="300" width="120" height="20" as="geometry">
            <mxRectangle width="120" height="20" as="alternateBounds" />
          </mxGeometry>
        </mxCell>
        <mxCell id="byc6SguBSszFDmuJhmrP-124" value="" style="swimlane;swimlaneHead=0;swimlaneBody=0;fontStyle=0;connectable=0;strokeColor=inherit;fillColor=none;startSize=0;collapsible=0;recursiveResize=0;expand=0;fontSize=11;" parent="byc6SguBSszFDmuJhmrP-121" vertex="1">
          <mxGeometry x="420" width="120" height="20" as="geometry">
            <mxRectangle width="120" height="20" as="alternateBounds" />
          </mxGeometry>
        </mxCell>
        <mxCell id="byc6SguBSszFDmuJhmrP-125" value="" style="swimlane;swimlaneHead=0;swimlaneBody=0;fontStyle=0;connectable=0;strokeColor=inherit;fillColor=none;startSize=0;collapsible=0;recursiveResize=0;expand=0;fontSize=11;" parent="byc6SguBSszFDmuJhmrP-121" vertex="1">
          <mxGeometry x="540" width="120" height="20" as="geometry">
            <mxRectangle width="120" height="20" as="alternateBounds" />
          </mxGeometry>
        </mxCell>
        <mxCell id="byc6SguBSszFDmuJhmrP-126" value="" style="swimlane;swimlaneHead=0;swimlaneBody=0;fontStyle=0;connectable=0;strokeColor=inherit;fillColor=none;startSize=0;collapsible=0;recursiveResize=0;expand=0;fontSize=11;" parent="byc6SguBSszFDmuJhmrP-121" vertex="1">
          <mxGeometry x="660" width="120" height="20" as="geometry">
            <mxRectangle width="120" height="20" as="alternateBounds" />
          </mxGeometry>
        </mxCell>
        <mxCell id="byc6SguBSszFDmuJhmrP-127" value="" style="shape=tableRow;horizontal=0;swimlaneHead=0;swimlaneBody=0;top=0;left=0;strokeColor=inherit;bottom=0;right=0;dropTarget=0;fontStyle=0;fillColor=none;points=[[0,0.5],[1,0.5]];portConstraint=eastwest;startSize=0;collapsible=0;recursiveResize=0;expand=0;fontSize=11;" parent="byc6SguBSszFDmuJhmrP-78" vertex="1">
          <mxGeometry y="240" width="780" height="20" as="geometry" />
        </mxCell>
        <mxCell id="byc6SguBSszFDmuJhmrP-163" style="swimlane;swimlaneHead=0;swimlaneBody=0;fontStyle=0;connectable=0;strokeColor=inherit;fillColor=none;startSize=0;collapsible=0;recursiveResize=0;expand=0;fontSize=11;" parent="byc6SguBSszFDmuJhmrP-127" vertex="1">
          <mxGeometry width="60" height="20" as="geometry">
            <mxRectangle width="60" height="20" as="alternateBounds" />
          </mxGeometry>
        </mxCell>
        <mxCell id="byc6SguBSszFDmuJhmrP-172" value="t + 6" style="text;html=1;align=center;verticalAlign=middle;resizable=0;points=[];autosize=1;strokeColor=none;fillColor=none;" parent="byc6SguBSszFDmuJhmrP-163" vertex="1">
          <mxGeometry x="7.5" y="-45" width="45" height="30" as="geometry" />
        </mxCell>
        <mxCell id="byc6SguBSszFDmuJhmrP-173" value="t + 7" style="text;html=1;align=center;verticalAlign=middle;resizable=0;points=[];autosize=1;strokeColor=none;fillColor=none;" parent="byc6SguBSszFDmuJhmrP-163" vertex="1">
          <mxGeometry x="7.5" y="-25" width="45" height="30" as="geometry" />
        </mxCell>
        <mxCell id="byc6SguBSszFDmuJhmrP-174" value="t + 8" style="text;html=1;align=center;verticalAlign=middle;resizable=0;points=[];autosize=1;strokeColor=none;fillColor=none;" parent="byc6SguBSszFDmuJhmrP-163" vertex="1">
          <mxGeometry x="7.5" y="-5" width="45" height="30" as="geometry" />
        </mxCell>
        <mxCell id="byc6SguBSszFDmuJhmrP-278" style="swimlane;swimlaneHead=0;swimlaneBody=0;fontStyle=0;connectable=0;strokeColor=inherit;fillColor=none;startSize=0;collapsible=0;recursiveResize=0;expand=0;fontSize=11;" parent="byc6SguBSszFDmuJhmrP-127" vertex="1">
          <mxGeometry x="60" width="120" height="20" as="geometry">
            <mxRectangle width="120" height="20" as="alternateBounds" />
          </mxGeometry>
        </mxCell>
        <mxCell id="byc6SguBSszFDmuJhmrP-128" value="" style="swimlane;swimlaneHead=0;swimlaneBody=0;fontStyle=0;connectable=0;strokeColor=inherit;fillColor=none;startSize=0;collapsible=0;recursiveResize=0;expand=0;fontSize=11;" parent="byc6SguBSszFDmuJhmrP-127" vertex="1">
          <mxGeometry x="180" width="120" height="20" as="geometry">
            <mxRectangle width="120" height="20" as="alternateBounds" />
          </mxGeometry>
        </mxCell>
        <mxCell id="byc6SguBSszFDmuJhmrP-129" value="" style="swimlane;swimlaneHead=0;swimlaneBody=0;fontStyle=0;connectable=0;strokeColor=inherit;fillColor=none;startSize=0;collapsible=0;recursiveResize=0;expand=0;fontSize=11;" parent="byc6SguBSszFDmuJhmrP-127" vertex="1">
          <mxGeometry x="300" width="120" height="20" as="geometry">
            <mxRectangle width="120" height="20" as="alternateBounds" />
          </mxGeometry>
        </mxCell>
        <mxCell id="byc6SguBSszFDmuJhmrP-130" value="" style="swimlane;swimlaneHead=0;swimlaneBody=0;fontStyle=0;connectable=0;strokeColor=inherit;fillColor=none;startSize=0;collapsible=0;recursiveResize=0;expand=0;fontSize=11;" parent="byc6SguBSszFDmuJhmrP-127" vertex="1">
          <mxGeometry x="420" width="120" height="20" as="geometry">
            <mxRectangle width="120" height="20" as="alternateBounds" />
          </mxGeometry>
        </mxCell>
        <mxCell id="byc6SguBSszFDmuJhmrP-131" value="" style="swimlane;swimlaneHead=0;swimlaneBody=0;fontStyle=0;connectable=0;strokeColor=inherit;fillColor=none;startSize=0;collapsible=0;recursiveResize=0;expand=0;fontSize=11;" parent="byc6SguBSszFDmuJhmrP-127" vertex="1">
          <mxGeometry x="540" width="120" height="20" as="geometry">
            <mxRectangle width="120" height="20" as="alternateBounds" />
          </mxGeometry>
        </mxCell>
        <mxCell id="byc6SguBSszFDmuJhmrP-132" value="" style="swimlane;swimlaneHead=0;swimlaneBody=0;fontStyle=0;connectable=0;strokeColor=inherit;fillColor=none;startSize=0;collapsible=0;recursiveResize=0;expand=0;fontSize=11;" parent="byc6SguBSszFDmuJhmrP-127" vertex="1">
          <mxGeometry x="660" width="120" height="20" as="geometry">
            <mxRectangle width="120" height="20" as="alternateBounds" />
          </mxGeometry>
        </mxCell>
        <mxCell id="byc6SguBSszFDmuJhmrP-133" value="" style="shape=tableRow;horizontal=0;swimlaneHead=0;swimlaneBody=0;top=0;left=0;strokeColor=inherit;bottom=0;right=0;dropTarget=0;fontStyle=0;fillColor=none;points=[[0,0.5],[1,0.5]];portConstraint=eastwest;startSize=0;collapsible=0;recursiveResize=0;expand=0;fontSize=11;" parent="byc6SguBSszFDmuJhmrP-78" vertex="1">
          <mxGeometry y="260" width="780" height="20" as="geometry" />
        </mxCell>
        <mxCell id="byc6SguBSszFDmuJhmrP-164" style="swimlane;swimlaneHead=0;swimlaneBody=0;fontStyle=0;connectable=0;strokeColor=inherit;fillColor=none;startSize=0;collapsible=0;recursiveResize=0;expand=0;fontSize=11;" parent="byc6SguBSszFDmuJhmrP-133" vertex="1">
          <mxGeometry width="60" height="20" as="geometry">
            <mxRectangle width="60" height="20" as="alternateBounds" />
          </mxGeometry>
        </mxCell>
        <mxCell id="byc6SguBSszFDmuJhmrP-175" value="t + 9" style="text;html=1;align=center;verticalAlign=middle;resizable=0;points=[];autosize=1;strokeColor=none;fillColor=none;" parent="byc6SguBSszFDmuJhmrP-164" vertex="1">
          <mxGeometry x="7.5" y="-5" width="45" height="30" as="geometry" />
        </mxCell>
        <mxCell id="byc6SguBSszFDmuJhmrP-279" style="swimlane;swimlaneHead=0;swimlaneBody=0;fontStyle=0;connectable=0;strokeColor=inherit;fillColor=none;startSize=0;collapsible=0;recursiveResize=0;expand=0;fontSize=11;" parent="byc6SguBSszFDmuJhmrP-133" vertex="1">
          <mxGeometry x="60" width="120" height="20" as="geometry">
            <mxRectangle width="120" height="20" as="alternateBounds" />
          </mxGeometry>
        </mxCell>
        <mxCell id="byc6SguBSszFDmuJhmrP-134" value="" style="swimlane;swimlaneHead=0;swimlaneBody=0;fontStyle=0;connectable=0;strokeColor=inherit;fillColor=none;startSize=0;collapsible=0;recursiveResize=0;expand=0;fontSize=11;" parent="byc6SguBSszFDmuJhmrP-133" vertex="1">
          <mxGeometry x="180" width="120" height="20" as="geometry">
            <mxRectangle width="120" height="20" as="alternateBounds" />
          </mxGeometry>
        </mxCell>
        <mxCell id="byc6SguBSszFDmuJhmrP-135" value="" style="swimlane;swimlaneHead=0;swimlaneBody=0;fontStyle=0;connectable=0;strokeColor=inherit;fillColor=none;startSize=0;collapsible=0;recursiveResize=0;expand=0;fontSize=11;" parent="byc6SguBSszFDmuJhmrP-133" vertex="1">
          <mxGeometry x="300" width="120" height="20" as="geometry">
            <mxRectangle width="120" height="20" as="alternateBounds" />
          </mxGeometry>
        </mxCell>
        <mxCell id="byc6SguBSszFDmuJhmrP-136" value="" style="swimlane;swimlaneHead=0;swimlaneBody=0;fontStyle=0;connectable=0;strokeColor=inherit;fillColor=none;startSize=0;collapsible=0;recursiveResize=0;expand=0;fontSize=11;" parent="byc6SguBSszFDmuJhmrP-133" vertex="1">
          <mxGeometry x="420" width="120" height="20" as="geometry">
            <mxRectangle width="120" height="20" as="alternateBounds" />
          </mxGeometry>
        </mxCell>
        <mxCell id="byc6SguBSszFDmuJhmrP-137" value="" style="swimlane;swimlaneHead=0;swimlaneBody=0;fontStyle=0;connectable=0;strokeColor=inherit;fillColor=none;startSize=0;collapsible=0;recursiveResize=0;expand=0;fontSize=11;" parent="byc6SguBSszFDmuJhmrP-133" vertex="1">
          <mxGeometry x="540" width="120" height="20" as="geometry">
            <mxRectangle width="120" height="20" as="alternateBounds" />
          </mxGeometry>
        </mxCell>
        <mxCell id="byc6SguBSszFDmuJhmrP-138" value="" style="swimlane;swimlaneHead=0;swimlaneBody=0;fontStyle=0;connectable=0;strokeColor=inherit;fillColor=none;startSize=0;collapsible=0;recursiveResize=0;expand=0;fontSize=11;" parent="byc6SguBSszFDmuJhmrP-133" vertex="1">
          <mxGeometry x="660" width="120" height="20" as="geometry">
            <mxRectangle width="120" height="20" as="alternateBounds" />
          </mxGeometry>
        </mxCell>
        <mxCell id="byc6SguBSszFDmuJhmrP-205" value="Frame 1" style="rounded=0;whiteSpace=wrap;html=1;fillColor=#f5f5f5;strokeColor=#666666;fontColor=#333333;" parent="byc6SguBSszFDmuJhmrP-138" vertex="1">
          <mxGeometry x="-240" y="-120" width="120" height="20" as="geometry" />
        </mxCell>
        <mxCell id="byc6SguBSszFDmuJhmrP-206" value="Frame 2" style="rounded=0;whiteSpace=wrap;html=1;fillColor=#dae8fc;strokeColor=#6c8ebf;" parent="byc6SguBSszFDmuJhmrP-138" vertex="1">
          <mxGeometry x="-240" y="-100" width="120" height="20" as="geometry" />
        </mxCell>
        <mxCell id="byc6SguBSszFDmuJhmrP-207" value="Frame 3" style="rounded=0;whiteSpace=wrap;html=1;fillColor=#d5e8d4;strokeColor=#82b366;" parent="byc6SguBSszFDmuJhmrP-138" vertex="1">
          <mxGeometry x="-240" y="-80" width="120" height="20" as="geometry" />
        </mxCell>
        <mxCell id="byc6SguBSszFDmuJhmrP-208" value="Frame 4" style="rounded=0;whiteSpace=wrap;html=1;fillColor=#ffe6cc;strokeColor=#d79b00;" parent="byc6SguBSszFDmuJhmrP-138" vertex="1">
          <mxGeometry x="-240" y="-60" width="120" height="20" as="geometry" />
        </mxCell>
        <mxCell id="byc6SguBSszFDmuJhmrP-209" value="Frame 5" style="rounded=0;whiteSpace=wrap;html=1;fillColor=#fff2cc;strokeColor=#d6b656;" parent="byc6SguBSszFDmuJhmrP-138" vertex="1">
          <mxGeometry x="-240" y="-40" width="120" height="20" as="geometry" />
        </mxCell>
        <mxCell id="byc6SguBSszFDmuJhmrP-210" value="Frame 6" style="rounded=0;whiteSpace=wrap;html=1;fillColor=#f8cecc;strokeColor=#b85450;" parent="byc6SguBSszFDmuJhmrP-138" vertex="1">
          <mxGeometry x="-240" y="-20" width="120" height="20" as="geometry" />
        </mxCell>
        <mxCell id="byc6SguBSszFDmuJhmrP-211" value="Frame 7" style="rounded=0;whiteSpace=wrap;html=1;fillColor=#e1d5e7;strokeColor=#9673a6;" parent="byc6SguBSszFDmuJhmrP-138" vertex="1">
          <mxGeometry x="-240" width="120" height="20" as="geometry" />
        </mxCell>
        <mxCell id="byc6SguBSszFDmuJhmrP-215" value="Frame 1" style="rounded=0;whiteSpace=wrap;html=1;fillColor=#f5f5f5;strokeColor=#666666;fontColor=#333333;" parent="byc6SguBSszFDmuJhmrP-138" vertex="1">
          <mxGeometry x="-120" y="-100" width="120" height="20" as="geometry" />
        </mxCell>
        <mxCell id="byc6SguBSszFDmuJhmrP-216" value="Frame 2" style="rounded=0;whiteSpace=wrap;html=1;fillColor=#dae8fc;strokeColor=#6c8ebf;" parent="byc6SguBSszFDmuJhmrP-138" vertex="1">
          <mxGeometry x="-120" y="-80" width="120" height="20" as="geometry" />
        </mxCell>
        <mxCell id="byc6SguBSszFDmuJhmrP-217" value="Frame 3" style="rounded=0;whiteSpace=wrap;html=1;fillColor=#d5e8d4;strokeColor=#82b366;" parent="byc6SguBSszFDmuJhmrP-138" vertex="1">
          <mxGeometry x="-120" y="-60" width="120" height="20" as="geometry" />
        </mxCell>
        <mxCell id="byc6SguBSszFDmuJhmrP-218" value="Frame 4" style="rounded=0;whiteSpace=wrap;html=1;fillColor=#ffe6cc;strokeColor=#d79b00;" parent="byc6SguBSszFDmuJhmrP-138" vertex="1">
          <mxGeometry x="-120" y="-40" width="120" height="20" as="geometry" />
        </mxCell>
        <mxCell id="byc6SguBSszFDmuJhmrP-219" value="Frame 5" style="rounded=0;whiteSpace=wrap;html=1;fillColor=#fff2cc;strokeColor=#d6b656;" parent="byc6SguBSszFDmuJhmrP-138" vertex="1">
          <mxGeometry x="-120" y="-20" width="120" height="20" as="geometry" />
        </mxCell>
        <mxCell id="byc6SguBSszFDmuJhmrP-220" value="Frame 6" style="rounded=0;whiteSpace=wrap;html=1;fillColor=#f8cecc;strokeColor=#b85450;" parent="byc6SguBSszFDmuJhmrP-138" vertex="1">
          <mxGeometry x="-120" width="120" height="20" as="geometry" />
        </mxCell>
        <mxCell id="byc6SguBSszFDmuJhmrP-225" value="Frame 1" style="rounded=0;whiteSpace=wrap;html=1;fillColor=#f5f5f5;strokeColor=#666666;fontColor=#333333;" parent="byc6SguBSszFDmuJhmrP-138" vertex="1">
          <mxGeometry y="-80" width="120" height="20" as="geometry" />
        </mxCell>
        <mxCell id="byc6SguBSszFDmuJhmrP-226" value="Frame 2" style="rounded=0;whiteSpace=wrap;html=1;fillColor=#dae8fc;strokeColor=#6c8ebf;" parent="byc6SguBSszFDmuJhmrP-138" vertex="1">
          <mxGeometry y="-60" width="120" height="20" as="geometry" />
        </mxCell>
        <mxCell id="byc6SguBSszFDmuJhmrP-227" value="Frame 3" style="rounded=0;whiteSpace=wrap;html=1;fillColor=#d5e8d4;strokeColor=#82b366;" parent="byc6SguBSszFDmuJhmrP-138" vertex="1">
          <mxGeometry y="-40" width="120" height="20" as="geometry" />
        </mxCell>
        <mxCell id="byc6SguBSszFDmuJhmrP-228" value="Frame 4" style="rounded=0;whiteSpace=wrap;html=1;fillColor=#ffe6cc;strokeColor=#d79b00;" parent="byc6SguBSszFDmuJhmrP-138" vertex="1">
          <mxGeometry y="-20" width="120" height="20" as="geometry" />
        </mxCell>
        <mxCell id="byc6SguBSszFDmuJhmrP-229" value="Frame 5" style="rounded=0;whiteSpace=wrap;html=1;fillColor=#fff2cc;strokeColor=#d6b656;" parent="byc6SguBSszFDmuJhmrP-138" vertex="1">
          <mxGeometry width="120" height="20" as="geometry" />
        </mxCell>
        <mxCell id="byc6SguBSszFDmuJhmrP-235" style="shape=tableRow;horizontal=0;swimlaneHead=0;swimlaneBody=0;top=0;left=0;strokeColor=inherit;bottom=0;right=0;dropTarget=0;fontStyle=0;fillColor=none;points=[[0,0.5],[1,0.5]];portConstraint=eastwest;startSize=0;collapsible=0;recursiveResize=0;expand=0;fontSize=11;" parent="byc6SguBSszFDmuJhmrP-78" vertex="1">
          <mxGeometry y="280" width="780" height="20" as="geometry" />
        </mxCell>
        <mxCell id="byc6SguBSszFDmuJhmrP-236" style="swimlane;swimlaneHead=0;swimlaneBody=0;fontStyle=0;connectable=0;strokeColor=inherit;fillColor=none;startSize=0;collapsible=0;recursiveResize=0;expand=0;fontSize=11;" parent="byc6SguBSszFDmuJhmrP-235" vertex="1">
          <mxGeometry width="60" height="20" as="geometry">
            <mxRectangle width="60" height="20" as="alternateBounds" />
          </mxGeometry>
        </mxCell>
        <mxCell id="byc6SguBSszFDmuJhmrP-242" value="..." style="text;html=1;align=center;verticalAlign=middle;resizable=0;points=[];autosize=1;strokeColor=none;fillColor=none;" parent="byc6SguBSszFDmuJhmrP-236" vertex="1">
          <mxGeometry x="15.5" y="-5" width="30" height="30" as="geometry" />
        </mxCell>
        <mxCell id="byc6SguBSszFDmuJhmrP-280" style="swimlane;swimlaneHead=0;swimlaneBody=0;fontStyle=0;connectable=0;strokeColor=inherit;fillColor=none;startSize=0;collapsible=0;recursiveResize=0;expand=0;fontSize=11;" parent="byc6SguBSszFDmuJhmrP-235" vertex="1">
          <mxGeometry x="60" width="120" height="20" as="geometry">
            <mxRectangle width="120" height="20" as="alternateBounds" />
          </mxGeometry>
        </mxCell>
        <mxCell id="byc6SguBSszFDmuJhmrP-237" style="swimlane;swimlaneHead=0;swimlaneBody=0;fontStyle=0;connectable=0;strokeColor=inherit;fillColor=none;startSize=0;collapsible=0;recursiveResize=0;expand=0;fontSize=11;" parent="byc6SguBSszFDmuJhmrP-235" vertex="1">
          <mxGeometry x="180" width="120" height="20" as="geometry">
            <mxRectangle width="120" height="20" as="alternateBounds" />
          </mxGeometry>
        </mxCell>
        <mxCell id="byc6SguBSszFDmuJhmrP-264" value="..." style="text;html=1;align=center;verticalAlign=middle;resizable=0;points=[];autosize=1;strokeColor=none;fillColor=none;" parent="byc6SguBSszFDmuJhmrP-237" vertex="1">
          <mxGeometry x="45" y="-5" width="30" height="30" as="geometry" />
        </mxCell>
        <mxCell id="byc6SguBSszFDmuJhmrP-238" style="swimlane;swimlaneHead=0;swimlaneBody=0;fontStyle=0;connectable=0;strokeColor=inherit;fillColor=none;startSize=0;collapsible=0;recursiveResize=0;expand=0;fontSize=11;" parent="byc6SguBSszFDmuJhmrP-235" vertex="1">
          <mxGeometry x="300" width="120" height="20" as="geometry">
            <mxRectangle width="120" height="20" as="alternateBounds" />
          </mxGeometry>
        </mxCell>
        <mxCell id="byc6SguBSszFDmuJhmrP-265" value="..." style="text;html=1;align=center;verticalAlign=middle;resizable=0;points=[];autosize=1;strokeColor=none;fillColor=none;" parent="byc6SguBSszFDmuJhmrP-238" vertex="1">
          <mxGeometry x="45" y="-5" width="30" height="30" as="geometry" />
        </mxCell>
        <mxCell id="byc6SguBSszFDmuJhmrP-239" style="swimlane;swimlaneHead=0;swimlaneBody=0;fontStyle=0;connectable=0;strokeColor=inherit;fillColor=none;startSize=0;collapsible=0;recursiveResize=0;expand=0;fontSize=11;" parent="byc6SguBSszFDmuJhmrP-235" vertex="1">
          <mxGeometry x="420" width="120" height="20" as="geometry">
            <mxRectangle width="120" height="20" as="alternateBounds" />
          </mxGeometry>
        </mxCell>
        <mxCell id="byc6SguBSszFDmuJhmrP-266" value="..." style="text;html=1;align=center;verticalAlign=middle;resizable=0;points=[];autosize=1;strokeColor=none;fillColor=none;" parent="byc6SguBSszFDmuJhmrP-239" vertex="1">
          <mxGeometry x="45" y="-5" width="30" height="30" as="geometry" />
        </mxCell>
        <mxCell id="byc6SguBSszFDmuJhmrP-240" style="swimlane;swimlaneHead=0;swimlaneBody=0;fontStyle=0;connectable=0;strokeColor=inherit;fillColor=none;startSize=0;collapsible=0;recursiveResize=0;expand=0;fontSize=11;" parent="byc6SguBSszFDmuJhmrP-235" vertex="1">
          <mxGeometry x="540" width="120" height="20" as="geometry">
            <mxRectangle width="120" height="20" as="alternateBounds" />
          </mxGeometry>
        </mxCell>
        <mxCell id="byc6SguBSszFDmuJhmrP-267" value="..." style="text;html=1;align=center;verticalAlign=middle;resizable=0;points=[];autosize=1;strokeColor=none;fillColor=none;" parent="byc6SguBSszFDmuJhmrP-240" vertex="1">
          <mxGeometry x="45" y="-5" width="30" height="30" as="geometry" />
        </mxCell>
        <mxCell id="byc6SguBSszFDmuJhmrP-241" style="swimlane;swimlaneHead=0;swimlaneBody=0;fontStyle=0;connectable=0;strokeColor=inherit;fillColor=none;startSize=0;collapsible=0;recursiveResize=0;expand=0;fontSize=11;" parent="byc6SguBSszFDmuJhmrP-235" vertex="1">
          <mxGeometry x="660" width="120" height="20" as="geometry">
            <mxRectangle width="120" height="20" as="alternateBounds" />
          </mxGeometry>
        </mxCell>
        <mxCell id="byc6SguBSszFDmuJhmrP-268" value="..." style="text;html=1;align=center;verticalAlign=middle;resizable=0;points=[];autosize=1;strokeColor=none;fillColor=none;" parent="byc6SguBSszFDmuJhmrP-241" vertex="1">
          <mxGeometry x="45" y="-5" width="30" height="30" as="geometry" />
        </mxCell>
        <mxCell id="byc6SguBSszFDmuJhmrP-250" style="shape=tableRow;horizontal=0;swimlaneHead=0;swimlaneBody=0;top=0;left=0;strokeColor=inherit;bottom=0;right=0;dropTarget=0;fontStyle=0;fillColor=none;points=[[0,0.5],[1,0.5]];portConstraint=eastwest;startSize=0;collapsible=0;recursiveResize=0;expand=0;fontSize=11;" parent="byc6SguBSszFDmuJhmrP-78" vertex="1">
          <mxGeometry y="300" width="780" height="20" as="geometry" />
        </mxCell>
        <mxCell id="byc6SguBSszFDmuJhmrP-251" style="swimlane;swimlaneHead=0;swimlaneBody=0;fontStyle=0;connectable=0;strokeColor=inherit;fillColor=none;startSize=0;collapsible=0;recursiveResize=0;expand=0;fontSize=11;" parent="byc6SguBSszFDmuJhmrP-250" vertex="1">
          <mxGeometry width="60" height="20" as="geometry">
            <mxRectangle width="60" height="20" as="alternateBounds" />
          </mxGeometry>
        </mxCell>
        <mxCell id="byc6SguBSszFDmuJhmrP-257" style="swimlane;swimlaneHead=0;swimlaneBody=0;fontStyle=0;connectable=0;strokeColor=inherit;fillColor=none;startSize=0;collapsible=0;recursiveResize=0;expand=0;fontSize=11;" parent="byc6SguBSszFDmuJhmrP-251" vertex="1">
          <mxGeometry width="60" height="20" as="geometry">
            <mxRectangle width="60" height="20" as="alternateBounds" />
          </mxGeometry>
        </mxCell>
        <mxCell id="byc6SguBSszFDmuJhmrP-258" value="t + n" style="text;html=1;align=center;verticalAlign=middle;resizable=0;points=[];autosize=1;strokeColor=none;fillColor=none;" parent="byc6SguBSszFDmuJhmrP-257" vertex="1">
          <mxGeometry x="7.5" y="-5" width="45" height="30" as="geometry" />
        </mxCell>
        <mxCell id="byc6SguBSszFDmuJhmrP-281" style="swimlane;swimlaneHead=0;swimlaneBody=0;fontStyle=0;connectable=0;strokeColor=inherit;fillColor=none;startSize=0;collapsible=0;recursiveResize=0;expand=0;fontSize=11;" parent="byc6SguBSszFDmuJhmrP-250" vertex="1">
          <mxGeometry x="60" width="120" height="20" as="geometry">
            <mxRectangle width="120" height="20" as="alternateBounds" />
          </mxGeometry>
        </mxCell>
        <mxCell id="byc6SguBSszFDmuJhmrP-252" style="swimlane;swimlaneHead=0;swimlaneBody=0;fontStyle=0;connectable=0;strokeColor=inherit;fillColor=none;startSize=0;collapsible=0;recursiveResize=0;expand=0;fontSize=11;" parent="byc6SguBSszFDmuJhmrP-250" vertex="1">
          <mxGeometry x="180" width="120" height="20" as="geometry">
            <mxRectangle width="120" height="20" as="alternateBounds" />
          </mxGeometry>
        </mxCell>
        <mxCell id="byc6SguBSszFDmuJhmrP-259" value="Frame n + 4" style="rounded=0;whiteSpace=wrap;html=1;fillColor=#f5f5f5;strokeColor=#666666;fontColor=#333333;" parent="byc6SguBSszFDmuJhmrP-252" vertex="1">
          <mxGeometry width="120" height="20" as="geometry" />
        </mxCell>
        <mxCell id="byc6SguBSszFDmuJhmrP-253" style="swimlane;swimlaneHead=0;swimlaneBody=0;fontStyle=0;connectable=0;strokeColor=inherit;fillColor=none;startSize=0;collapsible=0;recursiveResize=0;expand=0;fontSize=11;" parent="byc6SguBSszFDmuJhmrP-250" vertex="1">
          <mxGeometry x="300" width="120" height="20" as="geometry">
            <mxRectangle width="120" height="20" as="alternateBounds" />
          </mxGeometry>
        </mxCell>
        <mxCell id="byc6SguBSszFDmuJhmrP-260" value="Frame n + 3" style="rounded=0;whiteSpace=wrap;html=1;fillColor=#f5f5f5;strokeColor=#666666;fontColor=#333333;" parent="byc6SguBSszFDmuJhmrP-253" vertex="1">
          <mxGeometry width="120" height="20" as="geometry" />
        </mxCell>
        <mxCell id="byc6SguBSszFDmuJhmrP-254" style="swimlane;swimlaneHead=0;swimlaneBody=0;fontStyle=0;connectable=0;strokeColor=inherit;fillColor=none;startSize=0;collapsible=0;recursiveResize=0;expand=0;fontSize=11;" parent="byc6SguBSszFDmuJhmrP-250" vertex="1">
          <mxGeometry x="420" width="120" height="20" as="geometry">
            <mxRectangle width="120" height="20" as="alternateBounds" />
          </mxGeometry>
        </mxCell>
        <mxCell id="byc6SguBSszFDmuJhmrP-261" value="Frame n + 2" style="rounded=0;whiteSpace=wrap;html=1;fillColor=#f5f5f5;strokeColor=#666666;fontColor=#333333;" parent="byc6SguBSszFDmuJhmrP-254" vertex="1">
          <mxGeometry width="120" height="20" as="geometry" />
        </mxCell>
        <mxCell id="byc6SguBSszFDmuJhmrP-255" style="swimlane;swimlaneHead=0;swimlaneBody=0;fontStyle=0;connectable=0;strokeColor=inherit;fillColor=none;startSize=0;collapsible=0;recursiveResize=0;expand=0;fontSize=11;" parent="byc6SguBSszFDmuJhmrP-250" vertex="1">
          <mxGeometry x="540" width="120" height="20" as="geometry">
            <mxRectangle width="120" height="20" as="alternateBounds" />
          </mxGeometry>
        </mxCell>
        <mxCell id="byc6SguBSszFDmuJhmrP-262" value="Frame n + 1" style="rounded=0;whiteSpace=wrap;html=1;fillColor=#f5f5f5;strokeColor=#666666;fontColor=#333333;" parent="byc6SguBSszFDmuJhmrP-255" vertex="1">
          <mxGeometry width="120" height="20" as="geometry" />
        </mxCell>
        <mxCell id="byc6SguBSszFDmuJhmrP-256" style="swimlane;swimlaneHead=0;swimlaneBody=0;fontStyle=0;connectable=0;strokeColor=inherit;fillColor=none;startSize=0;collapsible=0;recursiveResize=0;expand=0;fontSize=11;" parent="byc6SguBSszFDmuJhmrP-250" vertex="1">
          <mxGeometry x="660" width="120" height="20" as="geometry">
            <mxRectangle width="120" height="20" as="alternateBounds" />
          </mxGeometry>
        </mxCell>
        <mxCell id="byc6SguBSszFDmuJhmrP-263" value="Frame n" style="rounded=0;whiteSpace=wrap;html=1;fillColor=#f5f5f5;strokeColor=#666666;fontColor=#333333;" parent="byc6SguBSszFDmuJhmrP-256" vertex="1">
          <mxGeometry width="120" height="20" as="geometry" />
        </mxCell>
      </root>
    </mxGraphModel>
  </diagram>
  <diagram id="81BX2c3MFV86YOdkIHCG" name="impl-interface_diagram">
    <mxGraphModel dx="995" dy="687" grid="1" gridSize="10" guides="1" tooltips="1" connect="1" arrows="1" fold="1" page="1" pageScale="1" pageWidth="827" pageHeight="1169" math="0" shadow="0">
      <root>
        <mxCell id="0" />
        <mxCell id="1" parent="0" />
        <mxCell id="B6qpAJx-VFBDzJPWddRr-1" value="" style="image;points=[];aspect=fixed;html=1;align=center;shadow=0;dashed=0;image=img/lib/allied_telesis/computer_and_terminals/Laptop.svg;" parent="1" vertex="1">
          <mxGeometry x="80" y="160" width="78.88" height="80" as="geometry" />
        </mxCell>
        <mxCell id="cNUzprcpoAlXlvOLMewH-2" value="" style="outlineConnect=0;dashed=0;verticalLabelPosition=bottom;verticalAlign=top;align=center;html=1;shape=mxgraph.aws3.hardware_board;fillColor=#5294CF;gradientColor=none;" parent="1" vertex="1">
          <mxGeometry x="400" y="160" width="80" height="80" as="geometry" />
        </mxCell>
        <mxCell id="cNUzprcpoAlXlvOLMewH-3" value="" style="html=1;verticalLabelPosition=bottom;align=center;labelBackgroundColor=#ffffff;verticalAlign=top;strokeWidth=2;strokeColor=#000000;shadow=0;dashed=0;shape=mxgraph.ios7.icons.wifi;pointerEvents=1;fillStyle=auto;" parent="1" vertex="1">
          <mxGeometry x="255" y="50" width="50" height="40" as="geometry" />
        </mxCell>
        <mxCell id="cNUzprcpoAlXlvOLMewH-4" value="" style="image;html=1;image=img/lib/clip_art/networking/Wireless_Router_128x128.png" parent="1" vertex="1">
          <mxGeometry x="100" y="40" width="60" height="60" as="geometry" />
        </mxCell>
        <mxCell id="cNUzprcpoAlXlvOLMewH-5" value="Personal Computer" style="text;html=1;align=center;verticalAlign=middle;whiteSpace=wrap;rounded=0;" parent="1" vertex="1">
          <mxGeometry x="80" y="240" width="80" height="30" as="geometry" />
        </mxCell>
        <mxCell id="cNUzprcpoAlXlvOLMewH-6" value="SSH Link via Ethernet" style="text;html=1;align=center;verticalAlign=middle;whiteSpace=wrap;rounded=0;" parent="1" vertex="1">
          <mxGeometry x="240" y="240" width="80" height="30" as="geometry" />
        </mxCell>
        <mxCell id="cNUzprcpoAlXlvOLMewH-7" value="Raspberry Pi" style="text;html=1;align=center;verticalAlign=middle;whiteSpace=wrap;rounded=0;" parent="1" vertex="1">
          <mxGeometry x="400" y="240" width="80" height="30" as="geometry" />
        </mxCell>
        <mxCell id="cNUzprcpoAlXlvOLMewH-8" value="Internet Link via Wi-Fi" style="text;html=1;align=center;verticalAlign=middle;whiteSpace=wrap;rounded=0;" parent="1" vertex="1">
          <mxGeometry x="240" y="110" width="80" height="30" as="geometry" />
        </mxCell>
        <mxCell id="cNUzprcpoAlXlvOLMewH-9" value="&#39;mydevices&#39; network" style="text;html=1;align=center;verticalAlign=middle;whiteSpace=wrap;rounded=0;" parent="1" vertex="1">
          <mxGeometry x="90" y="110" width="80" height="30" as="geometry" />
        </mxCell>
        <mxCell id="cNUzprcpoAlXlvOLMewH-14" value="" style="shape=flexArrow;endArrow=classic;startArrow=classic;html=1;rounded=0;exitX=1.012;exitY=0.499;exitDx=0;exitDy=0;exitPerimeter=0;entryX=0;entryY=0.5;entryDx=0;entryDy=0;entryPerimeter=0;" parent="1" source="B6qpAJx-VFBDzJPWddRr-1" target="cNUzprcpoAlXlvOLMewH-2" edge="1">
          <mxGeometry width="100" height="100" relative="1" as="geometry">
            <mxPoint x="160" y="200" as="sourcePoint" />
            <mxPoint x="280" y="210" as="targetPoint" />
          </mxGeometry>
        </mxCell>
        <mxCell id="cNUzprcpoAlXlvOLMewH-1" value="" style="sketch=0;pointerEvents=1;shadow=0;dashed=0;html=1;strokeColor=default;fillColor=none;aspect=fixed;labelPosition=center;verticalLabelPosition=bottom;verticalAlign=top;align=center;outlineConnect=0;shape=mxgraph.vvd.ethernet_port;movable=1;resizable=1;rotatable=1;deletable=1;editable=1;locked=0;connectable=1;fillStyle=solid;strokeWidth=1;" parent="1" vertex="1">
          <mxGeometry x="260" y="180" width="40" height="40" as="geometry" />
        </mxCell>
        <mxCell id="MEb5kXroM7XjFTqe9bFf-2" value="" style="fontColor=#0066CC;verticalAlign=top;verticalLabelPosition=bottom;labelPosition=center;align=center;html=1;outlineConnect=0;fillColor=#CCCCCC;strokeColor=#6881B3;gradientColor=none;gradientDirection=north;strokeWidth=2;shape=mxgraph.networks.video_projector;" vertex="1" parent="1">
          <mxGeometry x="720" y="190" width="70" height="20" as="geometry" />
        </mxCell>
        <mxCell id="MEb5kXroM7XjFTqe9bFf-33" value="" style="group;fillColor=#000000;strokeWidth=3;" vertex="1" connectable="0" parent="1">
          <mxGeometry x="560" y="190" width="70" height="20" as="geometry" />
        </mxCell>
        <mxCell id="MEb5kXroM7XjFTqe9bFf-31" value="" style="group;strokeWidth=3;fillColor=default;container=0;" vertex="1" connectable="0" parent="MEb5kXroM7XjFTqe9bFf-33">
          <mxGeometry width="70" height="20" as="geometry" />
        </mxCell>
        <mxCell id="MEb5kXroM7XjFTqe9bFf-26" value="" style="rounded=1;whiteSpace=wrap;html=1;strokeWidth=3;" vertex="1" parent="MEb5kXroM7XjFTqe9bFf-33">
          <mxGeometry width="70" height="13.333333333333332" as="geometry" />
        </mxCell>
        <mxCell id="MEb5kXroM7XjFTqe9bFf-27" value="" style="endArrow=none;html=1;rounded=0;strokeWidth=3;" edge="1" parent="MEb5kXroM7XjFTqe9bFf-33">
          <mxGeometry width="50" height="50" relative="1" as="geometry">
            <mxPoint x="7" y="13.333333333333314" as="sourcePoint" />
            <mxPoint x="14" y="18" as="targetPoint" />
          </mxGeometry>
        </mxCell>
        <mxCell id="MEb5kXroM7XjFTqe9bFf-28" value="" style="endArrow=none;html=1;rounded=0;strokeWidth=3;" edge="1" parent="MEb5kXroM7XjFTqe9bFf-33">
          <mxGeometry width="50" height="50" relative="1" as="geometry">
            <mxPoint x="14" y="18" as="sourcePoint" />
            <mxPoint x="56" y="18" as="targetPoint" />
          </mxGeometry>
        </mxCell>
        <mxCell id="MEb5kXroM7XjFTqe9bFf-29" value="" style="endArrow=none;html=1;rounded=0;strokeWidth=3;" edge="1" parent="MEb5kXroM7XjFTqe9bFf-33">
          <mxGeometry width="50" height="50" relative="1" as="geometry">
            <mxPoint x="56" y="18" as="sourcePoint" />
            <mxPoint x="63" y="13.333333333333314" as="targetPoint" />
          </mxGeometry>
        </mxCell>
        <mxCell id="MEb5kXroM7XjFTqe9bFf-30" value="" style="endArrow=none;html=1;rounded=0;exitX=0.119;exitY=1.001;exitDx=0;exitDy=0;exitPerimeter=0;entryX=0.875;entryY=0.998;entryDx=0;entryDy=0;entryPerimeter=0;strokeColor=#FFFFFF;strokeWidth=3;" edge="1" parent="MEb5kXroM7XjFTqe9bFf-33" target="MEb5kXroM7XjFTqe9bFf-26">
          <mxGeometry width="50" height="50" relative="1" as="geometry">
            <mxPoint x="8.75" y="13.333333333333314" as="sourcePoint" />
            <mxPoint x="61.95000000000001" y="13.256666666666593" as="targetPoint" />
          </mxGeometry>
        </mxCell>
        <mxCell id="MEb5kXroM7XjFTqe9bFf-32" value="" style="rounded=1;whiteSpace=wrap;html=1;strokeWidth=3;" vertex="1" parent="MEb5kXroM7XjFTqe9bFf-33">
          <mxGeometry x="8.75" y="5.420000000000016" width="52.5" height="2.5" as="geometry" />
        </mxCell>
        <mxCell id="MEb5kXroM7XjFTqe9bFf-34" value="" style="shape=flexArrow;endArrow=classic;startArrow=classic;html=1;rounded=0;entryX=0.5;entryY=0;entryDx=0;entryDy=0;entryPerimeter=0;exitX=1;exitY=0.5;exitDx=0;exitDy=0;" edge="1" parent="1" source="cNUzprcpoAlXlvOLMewH-4" target="cNUzprcpoAlXlvOLMewH-2">
          <mxGeometry width="100" height="100" relative="1" as="geometry">
            <mxPoint x="360" y="70" as="sourcePoint" />
            <mxPoint x="440" y="140" as="targetPoint" />
            <Array as="points">
              <mxPoint x="440" y="70" />
            </Array>
          </mxGeometry>
        </mxCell>
        <mxCell id="MEb5kXroM7XjFTqe9bFf-36" value="" style="shape=flexArrow;endArrow=classic;startArrow=none;html=1;rounded=0;exitX=1.012;exitY=0.499;exitDx=0;exitDy=0;exitPerimeter=0;entryX=0;entryY=0.5;entryDx=0;entryDy=0;entryPerimeter=0;startFill=0;" edge="1" parent="1">
          <mxGeometry width="100" height="100" relative="1" as="geometry">
            <mxPoint x="480" y="199.58" as="sourcePoint" />
            <mxPoint x="720" y="199.58" as="targetPoint" />
          </mxGeometry>
        </mxCell>
        <mxCell id="MEb5kXroM7XjFTqe9bFf-37" value="Video Output via HDMI" style="text;html=1;align=center;verticalAlign=middle;whiteSpace=wrap;rounded=0;" vertex="1" parent="1">
          <mxGeometry x="555" y="240" width="80" height="30" as="geometry" />
        </mxCell>
        <mxCell id="MEb5kXroM7XjFTqe9bFf-38" value="DLP Projector" style="text;html=1;align=center;verticalAlign=middle;whiteSpace=wrap;rounded=0;" vertex="1" parent="1">
          <mxGeometry x="715" y="240" width="80" height="30" as="geometry" />
        </mxCell>
      </root>
    </mxGraphModel>
  </diagram>
  <diagram id="3agtpDTl98xaiuwiBFxB" name="impl-sim_flow">
    <mxGraphModel dx="1194" dy="1993" grid="1" gridSize="10" guides="1" tooltips="1" connect="1" arrows="1" fold="1" page="1" pageScale="1" pageWidth="827" pageHeight="1169" math="0" shadow="0">
      <root>
        <mxCell id="0" />
        <mxCell id="1" parent="0" />
        <mxCell id="e5-biLO_STPXT4ZFqODy-18" style="edgeStyle=orthogonalEdgeStyle;rounded=0;orthogonalLoop=1;jettySize=auto;html=1;entryX=0;entryY=0.5;entryDx=0;entryDy=0;" parent="1" source="e5-biLO_STPXT4ZFqODy-1" target="e5-biLO_STPXT4ZFqODy-2" edge="1">
          <mxGeometry relative="1" as="geometry" />
        </mxCell>
        <mxCell id="e5-biLO_STPXT4ZFqODy-1" value="Start" style="strokeWidth=2;html=1;shape=mxgraph.flowchart.start_2;whiteSpace=wrap;" parent="1" vertex="1">
          <mxGeometry x="40" y="200" width="80" height="80" as="geometry" />
        </mxCell>
        <mxCell id="e5-biLO_STPXT4ZFqODy-2" value="Initialise Pygame &amp;amp; Window.&lt;div&gt;&lt;br&gt;&lt;/div&gt;&lt;div&gt;running = True&lt;/div&gt;" style="rounded=1;whiteSpace=wrap;html=1;absoluteArcSize=1;arcSize=14;strokeWidth=2;" parent="1" vertex="1">
          <mxGeometry x="180" y="200" width="120" height="80" as="geometry" />
        </mxCell>
        <mxCell id="e5-biLO_STPXT4ZFqODy-98" style="edgeStyle=orthogonalEdgeStyle;rounded=0;orthogonalLoop=1;jettySize=auto;html=1;entryX=0.5;entryY=0;entryDx=0;entryDy=0;" parent="1" source="e5-biLO_STPXT4ZFqODy-3" target="e5-biLO_STPXT4ZFqODy-4" edge="1">
          <mxGeometry relative="1" as="geometry" />
        </mxCell>
        <mxCell id="e5-biLO_STPXT4ZFqODy-99" value="FALSE" style="edgeLabel;html=1;align=center;verticalAlign=middle;resizable=0;points=[];" parent="e5-biLO_STPXT4ZFqODy-98" vertex="1" connectable="0">
          <mxGeometry x="-0.3333" y="-2" relative="1" as="geometry">
            <mxPoint as="offset" />
          </mxGeometry>
        </mxCell>
        <mxCell id="e5-biLO_STPXT4ZFqODy-3" value="Constant particle generation?" style="strokeWidth=2;html=1;shape=mxgraph.flowchart.decision;whiteSpace=wrap;" parent="1" vertex="1">
          <mxGeometry x="360" y="200" width="120" height="80" as="geometry" />
        </mxCell>
        <mxCell id="e5-biLO_STPXT4ZFqODy-117" style="edgeStyle=orthogonalEdgeStyle;rounded=0;orthogonalLoop=1;jettySize=auto;html=1;" parent="1" source="e5-biLO_STPXT4ZFqODy-4" edge="1">
          <mxGeometry relative="1" as="geometry">
            <mxPoint x="520" y="240" as="targetPoint" />
          </mxGeometry>
        </mxCell>
        <mxCell id="e5-biLO_STPXT4ZFqODy-4" value="Instantiate particles until MAX_PARTICLES" style="rounded=1;whiteSpace=wrap;html=1;absoluteArcSize=1;arcSize=14;strokeWidth=2;" parent="1" vertex="1">
          <mxGeometry x="360" y="340" width="120" height="80" as="geometry" />
        </mxCell>
        <mxCell id="e5-biLO_STPXT4ZFqODy-24" style="edgeStyle=orthogonalEdgeStyle;rounded=0;orthogonalLoop=1;jettySize=auto;html=1;entryX=0;entryY=0.5;entryDx=0;entryDy=0;" parent="1" source="e5-biLO_STPXT4ZFqODy-6" edge="1">
          <mxGeometry relative="1" as="geometry">
            <mxPoint x="720" y="240" as="targetPoint" />
          </mxGeometry>
        </mxCell>
        <mxCell id="e5-biLO_STPXT4ZFqODy-50" value="TRUE" style="edgeLabel;html=1;align=center;verticalAlign=middle;resizable=0;points=[];" parent="e5-biLO_STPXT4ZFqODy-24" vertex="1" connectable="0">
          <mxGeometry x="-0.3333" y="2" relative="1" as="geometry">
            <mxPoint as="offset" />
          </mxGeometry>
        </mxCell>
        <mxCell id="e5-biLO_STPXT4ZFqODy-113" style="edgeStyle=orthogonalEdgeStyle;rounded=0;orthogonalLoop=1;jettySize=auto;html=1;entryX=0.5;entryY=0;entryDx=0;entryDy=0;" parent="1" source="e5-biLO_STPXT4ZFqODy-6" target="e5-biLO_STPXT4ZFqODy-112" edge="1">
          <mxGeometry relative="1" as="geometry" />
        </mxCell>
        <mxCell id="e5-biLO_STPXT4ZFqODy-114" value="FALSE" style="edgeLabel;html=1;align=center;verticalAlign=middle;resizable=0;points=[];" parent="e5-biLO_STPXT4ZFqODy-113" vertex="1" connectable="0">
          <mxGeometry x="-0.4667" relative="1" as="geometry">
            <mxPoint as="offset" />
          </mxGeometry>
        </mxCell>
        <mxCell id="e5-biLO_STPXT4ZFqODy-6" value="running = True?" style="strokeWidth=2;html=1;shape=mxgraph.flowchart.decision;whiteSpace=wrap;" parent="1" vertex="1">
          <mxGeometry x="540" y="200" width="120" height="80" as="geometry" />
        </mxCell>
        <mxCell id="e5-biLO_STPXT4ZFqODy-25" style="edgeStyle=orthogonalEdgeStyle;rounded=0;orthogonalLoop=1;jettySize=auto;html=1;entryX=0;entryY=0.5;entryDx=0;entryDy=0;" parent="1" edge="1">
          <mxGeometry relative="1" as="geometry">
            <mxPoint x="840" y="240" as="sourcePoint" />
            <mxPoint x="900" y="240" as="targetPoint" />
          </mxGeometry>
        </mxCell>
        <mxCell id="e5-biLO_STPXT4ZFqODy-27" style="edgeStyle=orthogonalEdgeStyle;rounded=0;orthogonalLoop=1;jettySize=auto;html=1;entryX=0;entryY=0.5;entryDx=0;entryDy=0;" parent="1" source="e5-biLO_STPXT4ZFqODy-15" target="e5-biLO_STPXT4ZFqODy-16" edge="1">
          <mxGeometry relative="1" as="geometry" />
        </mxCell>
        <mxCell id="e5-biLO_STPXT4ZFqODy-46" value="TRUE" style="edgeLabel;html=1;align=center;verticalAlign=middle;resizable=0;points=[];" parent="e5-biLO_STPXT4ZFqODy-27" vertex="1" connectable="0">
          <mxGeometry x="-0.2667" y="-1" relative="1" as="geometry">
            <mxPoint as="offset" />
          </mxGeometry>
        </mxCell>
        <mxCell id="e5-biLO_STPXT4ZFqODy-91" style="edgeStyle=orthogonalEdgeStyle;rounded=0;orthogonalLoop=1;jettySize=auto;html=1;entryX=0.5;entryY=1;entryDx=0;entryDy=0;" parent="1" source="e5-biLO_STPXT4ZFqODy-15" target="e5-biLO_STPXT4ZFqODy-44" edge="1">
          <mxGeometry relative="1" as="geometry" />
        </mxCell>
        <mxCell id="e5-biLO_STPXT4ZFqODy-92" value="FALSE" style="edgeLabel;html=1;align=center;verticalAlign=middle;resizable=0;points=[];" parent="e5-biLO_STPXT4ZFqODy-91" vertex="1" connectable="0">
          <mxGeometry x="-0.0857" relative="1" as="geometry">
            <mxPoint as="offset" />
          </mxGeometry>
        </mxCell>
        <mxCell id="e5-biLO_STPXT4ZFqODy-15" value="bubbles[i] exists?" style="strokeWidth=2;html=1;shape=mxgraph.flowchart.decision;whiteSpace=wrap;" parent="1" vertex="1">
          <mxGeometry x="1260" y="200" width="120" height="80" as="geometry" />
        </mxCell>
        <mxCell id="e5-biLO_STPXT4ZFqODy-28" style="edgeStyle=orthogonalEdgeStyle;rounded=0;orthogonalLoop=1;jettySize=auto;html=1;entryX=0;entryY=0.5;entryDx=0;entryDy=0;" parent="1" source="e5-biLO_STPXT4ZFqODy-16" target="e5-biLO_STPXT4ZFqODy-17" edge="1">
          <mxGeometry relative="1" as="geometry" />
        </mxCell>
        <mxCell id="e5-biLO_STPXT4ZFqODy-16" value="Append position coordinates and radius of bubbles[i] to list." style="rounded=1;whiteSpace=wrap;html=1;absoluteArcSize=1;arcSize=14;strokeWidth=2;" parent="1" vertex="1">
          <mxGeometry x="1440" y="200" width="120" height="80" as="geometry" />
        </mxCell>
        <mxCell id="e5-biLO_STPXT4ZFqODy-17" value="Move then draw bubbles[i]" style="rounded=1;whiteSpace=wrap;html=1;absoluteArcSize=1;arcSize=14;strokeWidth=2;" parent="1" vertex="1">
          <mxGeometry x="1620" y="200" width="120" height="80" as="geometry" />
        </mxCell>
        <mxCell id="e5-biLO_STPXT4ZFqODy-19" style="edgeStyle=orthogonalEdgeStyle;rounded=0;orthogonalLoop=1;jettySize=auto;html=1;entryX=0;entryY=0.5;entryDx=0;entryDy=0;entryPerimeter=0;" parent="1" source="e5-biLO_STPXT4ZFqODy-2" target="e5-biLO_STPXT4ZFqODy-3" edge="1">
          <mxGeometry relative="1" as="geometry" />
        </mxCell>
        <mxCell id="e5-biLO_STPXT4ZFqODy-20" style="edgeStyle=orthogonalEdgeStyle;rounded=0;orthogonalLoop=1;jettySize=auto;html=1;entryX=0;entryY=0.5;entryDx=0;entryDy=0;entryPerimeter=0;" parent="1" source="e5-biLO_STPXT4ZFqODy-3" target="e5-biLO_STPXT4ZFqODy-6" edge="1">
          <mxGeometry relative="1" as="geometry" />
        </mxCell>
        <mxCell id="e5-biLO_STPXT4ZFqODy-64" value="TRUE" style="edgeLabel;html=1;align=center;verticalAlign=middle;resizable=0;points=[];" parent="e5-biLO_STPXT4ZFqODy-20" vertex="1" connectable="0">
          <mxGeometry x="-0.3667" y="1" relative="1" as="geometry">
            <mxPoint as="offset" />
          </mxGeometry>
        </mxCell>
        <mxCell id="e5-biLO_STPXT4ZFqODy-26" style="edgeStyle=orthogonalEdgeStyle;rounded=0;orthogonalLoop=1;jettySize=auto;html=1;entryX=0;entryY=0.5;entryDx=0;entryDy=0;entryPerimeter=0;" parent="1" target="e5-biLO_STPXT4ZFqODy-15" edge="1">
          <mxGeometry relative="1" as="geometry">
            <mxPoint x="1200" y="240" as="sourcePoint" />
          </mxGeometry>
        </mxCell>
        <mxCell id="e5-biLO_STPXT4ZFqODy-37" style="edgeStyle=orthogonalEdgeStyle;rounded=0;orthogonalLoop=1;jettySize=auto;html=1;entryX=0;entryY=0.5;entryDx=0;entryDy=0;" parent="1" source="e5-biLO_STPXT4ZFqODy-29" target="e5-biLO_STPXT4ZFqODy-35" edge="1">
          <mxGeometry relative="1" as="geometry" />
        </mxCell>
        <mxCell id="e5-biLO_STPXT4ZFqODy-48" value="TRUE" style="edgeLabel;html=1;align=center;verticalAlign=middle;resizable=0;points=[];" parent="e5-biLO_STPXT4ZFqODy-37" vertex="1" connectable="0">
          <mxGeometry x="-0.2667" y="3" relative="1" as="geometry">
            <mxPoint as="offset" />
          </mxGeometry>
        </mxCell>
        <mxCell id="e5-biLO_STPXT4ZFqODy-89" style="edgeStyle=orthogonalEdgeStyle;rounded=0;orthogonalLoop=1;jettySize=auto;html=1;exitX=0.5;exitY=1;exitDx=0;exitDy=0;exitPerimeter=0;" parent="1" source="e5-biLO_STPXT4ZFqODy-29" edge="1">
          <mxGeometry relative="1" as="geometry">
            <mxPoint x="1860" y="380" as="targetPoint" />
          </mxGeometry>
        </mxCell>
        <mxCell id="e5-biLO_STPXT4ZFqODy-90" value="FALSE" style="edgeLabel;html=1;align=center;verticalAlign=middle;resizable=0;points=[];" parent="e5-biLO_STPXT4ZFqODy-89" vertex="1" connectable="0">
          <mxGeometry x="-0.3632" relative="1" as="geometry">
            <mxPoint as="offset" />
          </mxGeometry>
        </mxCell>
        <mxCell id="e5-biLO_STPXT4ZFqODy-29" value="randomise velocity?" style="strokeWidth=2;html=1;shape=mxgraph.flowchart.decision;whiteSpace=wrap;" parent="1" vertex="1">
          <mxGeometry x="1800" y="200" width="120" height="80" as="geometry" />
        </mxCell>
        <mxCell id="e5-biLO_STPXT4ZFqODy-87" style="edgeStyle=orthogonalEdgeStyle;rounded=0;orthogonalLoop=1;jettySize=auto;html=1;entryX=1;entryY=0.5;entryDx=0;entryDy=0;" parent="1" source="e5-biLO_STPXT4ZFqODy-35" target="e5-biLO_STPXT4ZFqODy-39" edge="1">
          <mxGeometry relative="1" as="geometry">
            <Array as="points">
              <mxPoint x="2040" y="380" />
            </Array>
          </mxGeometry>
        </mxCell>
        <mxCell id="e5-biLO_STPXT4ZFqODy-35" value="Randomise velocity for bubbles[i]" style="rounded=1;whiteSpace=wrap;html=1;absoluteArcSize=1;arcSize=14;strokeWidth=2;" parent="1" vertex="1">
          <mxGeometry x="1980" y="200" width="120" height="80" as="geometry" />
        </mxCell>
        <mxCell id="e5-biLO_STPXT4ZFqODy-36" style="edgeStyle=orthogonalEdgeStyle;rounded=0;orthogonalLoop=1;jettySize=auto;html=1;entryX=0;entryY=0.5;entryDx=0;entryDy=0;entryPerimeter=0;" parent="1" source="e5-biLO_STPXT4ZFqODy-17" target="e5-biLO_STPXT4ZFqODy-29" edge="1">
          <mxGeometry relative="1" as="geometry" />
        </mxCell>
        <mxCell id="e5-biLO_STPXT4ZFqODy-39" value="i++" style="rounded=1;whiteSpace=wrap;html=1;absoluteArcSize=1;arcSize=14;strokeWidth=2;" parent="1" vertex="1">
          <mxGeometry x="1620" y="340" width="120" height="80" as="geometry" />
        </mxCell>
        <mxCell id="e5-biLO_STPXT4ZFqODy-44" value="Remove bubbles that are out of the simulation frame" style="rounded=1;whiteSpace=wrap;html=1;absoluteArcSize=1;arcSize=14;strokeWidth=2;" parent="1" vertex="1">
          <mxGeometry x="1260" y="60" width="120" height="80" as="geometry" />
        </mxCell>
        <mxCell id="e5-biLO_STPXT4ZFqODy-52" value="Fill simulation frame background with BG_COLOUR" style="rounded=1;whiteSpace=wrap;html=1;absoluteArcSize=1;arcSize=14;strokeWidth=2;" parent="1" vertex="1">
          <mxGeometry x="720" y="200" width="120" height="80" as="geometry" />
        </mxCell>
        <mxCell id="e5-biLO_STPXT4ZFqODy-118" style="edgeStyle=orthogonalEdgeStyle;rounded=0;orthogonalLoop=1;jettySize=auto;html=1;" parent="1" source="e5-biLO_STPXT4ZFqODy-56" edge="1">
          <mxGeometry relative="1" as="geometry">
            <mxPoint x="1060" y="240" as="targetPoint" />
          </mxGeometry>
        </mxCell>
        <mxCell id="e5-biLO_STPXT4ZFqODy-56" value="Instantiate particles until MAX_PARTICLES" style="rounded=1;whiteSpace=wrap;html=1;absoluteArcSize=1;arcSize=14;strokeWidth=2;" parent="1" vertex="1">
          <mxGeometry x="900" y="340" width="120" height="80" as="geometry" />
        </mxCell>
        <mxCell id="e5-biLO_STPXT4ZFqODy-61" style="edgeStyle=orthogonalEdgeStyle;rounded=0;orthogonalLoop=1;jettySize=auto;html=1;entryX=0;entryY=0.5;entryDx=0;entryDy=0;" parent="1" source="e5-biLO_STPXT4ZFqODy-57" target="e5-biLO_STPXT4ZFqODy-60" edge="1">
          <mxGeometry relative="1" as="geometry" />
        </mxCell>
        <mxCell id="e5-biLO_STPXT4ZFqODy-63" value="FALSE" style="edgeLabel;html=1;align=center;verticalAlign=middle;resizable=0;points=[];" parent="e5-biLO_STPXT4ZFqODy-61" vertex="1" connectable="0">
          <mxGeometry x="-0.4" y="2" relative="1" as="geometry">
            <mxPoint as="offset" />
          </mxGeometry>
        </mxCell>
        <mxCell id="e5-biLO_STPXT4ZFqODy-101" style="edgeStyle=orthogonalEdgeStyle;rounded=0;orthogonalLoop=1;jettySize=auto;html=1;entryX=0.5;entryY=0;entryDx=0;entryDy=0;" parent="1" source="e5-biLO_STPXT4ZFqODy-57" target="e5-biLO_STPXT4ZFqODy-56" edge="1">
          <mxGeometry relative="1" as="geometry" />
        </mxCell>
        <mxCell id="e5-biLO_STPXT4ZFqODy-102" value="TRUE" style="edgeLabel;html=1;align=center;verticalAlign=middle;resizable=0;points=[];" parent="e5-biLO_STPXT4ZFqODy-101" vertex="1" connectable="0">
          <mxGeometry x="-0.0333" y="-1" relative="1" as="geometry">
            <mxPoint as="offset" />
          </mxGeometry>
        </mxCell>
        <mxCell id="e5-biLO_STPXT4ZFqODy-57" value="Constant particle generation?" style="strokeWidth=2;html=1;shape=mxgraph.flowchart.decision;whiteSpace=wrap;" parent="1" vertex="1">
          <mxGeometry x="900" y="200" width="120" height="80" as="geometry" />
        </mxCell>
        <mxCell id="e5-biLO_STPXT4ZFqODy-60" value="i = 0" style="rounded=1;whiteSpace=wrap;html=1;absoluteArcSize=1;arcSize=14;strokeWidth=2;" parent="1" vertex="1">
          <mxGeometry x="1080" y="200" width="120" height="80" as="geometry" />
        </mxCell>
        <mxCell id="e5-biLO_STPXT4ZFqODy-104" style="edgeStyle=orthogonalEdgeStyle;rounded=0;orthogonalLoop=1;jettySize=auto;html=1;entryX=0.5;entryY=1;entryDx=0;entryDy=0;" parent="1" source="e5-biLO_STPXT4ZFqODy-66" target="e5-biLO_STPXT4ZFqODy-68" edge="1">
          <mxGeometry relative="1" as="geometry" />
        </mxCell>
        <mxCell id="e5-biLO_STPXT4ZFqODy-110" value="TRUE" style="edgeLabel;html=1;align=center;verticalAlign=middle;resizable=0;points=[];" parent="e5-biLO_STPXT4ZFqODy-104" vertex="1" connectable="0">
          <mxGeometry x="-0.0333" y="1" relative="1" as="geometry">
            <mxPoint as="offset" />
          </mxGeometry>
        </mxCell>
        <mxCell id="e5-biLO_STPXT4ZFqODy-105" style="edgeStyle=orthogonalEdgeStyle;rounded=0;orthogonalLoop=1;jettySize=auto;html=1;entryX=1;entryY=0.5;entryDx=0;entryDy=0;" parent="1" source="e5-biLO_STPXT4ZFqODy-66" target="e5-biLO_STPXT4ZFqODy-71" edge="1">
          <mxGeometry relative="1" as="geometry" />
        </mxCell>
        <mxCell id="e5-biLO_STPXT4ZFqODy-111" value="FALSE" style="edgeLabel;html=1;align=center;verticalAlign=middle;resizable=0;points=[];" parent="e5-biLO_STPXT4ZFqODy-105" vertex="1" connectable="0">
          <mxGeometry x="-0.2333" y="-4" relative="1" as="geometry">
            <mxPoint as="offset" />
          </mxGeometry>
        </mxCell>
        <mxCell id="e5-biLO_STPXT4ZFqODy-66" value="User exit signal received?" style="strokeWidth=2;html=1;shape=mxgraph.flowchart.decision;whiteSpace=wrap;" parent="1" vertex="1">
          <mxGeometry x="1080" y="60" width="120" height="80" as="geometry" />
        </mxCell>
        <mxCell id="e5-biLO_STPXT4ZFqODy-109" style="edgeStyle=orthogonalEdgeStyle;rounded=0;orthogonalLoop=1;jettySize=auto;html=1;" parent="1" source="e5-biLO_STPXT4ZFqODy-68" edge="1">
          <mxGeometry relative="1" as="geometry">
            <mxPoint x="1040" y="100" as="targetPoint" />
          </mxGeometry>
        </mxCell>
        <mxCell id="e5-biLO_STPXT4ZFqODy-68" value="running = False" style="rounded=1;whiteSpace=wrap;html=1;absoluteArcSize=1;arcSize=14;strokeWidth=2;" parent="1" vertex="1">
          <mxGeometry x="1080" y="-80" width="120" height="80" as="geometry" />
        </mxCell>
        <mxCell id="e5-biLO_STPXT4ZFqODy-106" style="edgeStyle=orthogonalEdgeStyle;rounded=0;orthogonalLoop=1;jettySize=auto;html=1;entryX=1;entryY=0.5;entryDx=0;entryDy=0;" parent="1" source="e5-biLO_STPXT4ZFqODy-71" target="e5-biLO_STPXT4ZFqODy-72" edge="1">
          <mxGeometry relative="1" as="geometry" />
        </mxCell>
        <mxCell id="e5-biLO_STPXT4ZFqODy-71" value="Render simulation window output" style="rounded=1;whiteSpace=wrap;html=1;absoluteArcSize=1;arcSize=14;strokeWidth=2;" parent="1" vertex="1">
          <mxGeometry x="900" y="60" width="120" height="80" as="geometry" />
        </mxCell>
        <mxCell id="e5-biLO_STPXT4ZFqODy-107" style="edgeStyle=orthogonalEdgeStyle;rounded=0;orthogonalLoop=1;jettySize=auto;html=1;entryX=1;entryY=0.5;entryDx=0;entryDy=0;" parent="1" source="e5-biLO_STPXT4ZFqODy-72" target="e5-biLO_STPXT4ZFqODy-73" edge="1">
          <mxGeometry relative="1" as="geometry" />
        </mxCell>
        <mxCell id="e5-biLO_STPXT4ZFqODy-72" value="Export simulation frame capture image" style="rounded=1;whiteSpace=wrap;html=1;absoluteArcSize=1;arcSize=14;strokeWidth=2;" parent="1" vertex="1">
          <mxGeometry x="720" y="60" width="120" height="80" as="geometry" />
        </mxCell>
        <mxCell id="e5-biLO_STPXT4ZFqODy-108" style="edgeStyle=orthogonalEdgeStyle;rounded=0;orthogonalLoop=1;jettySize=auto;html=1;" parent="1" source="e5-biLO_STPXT4ZFqODy-73" edge="1">
          <mxGeometry relative="1" as="geometry">
            <mxPoint x="520" y="240" as="targetPoint" />
          </mxGeometry>
        </mxCell>
        <mxCell id="e5-biLO_STPXT4ZFqODy-73" value="Calculate simulation time delta from last frame &amp;amp; pause to maintain framerate" style="rounded=1;whiteSpace=wrap;html=1;absoluteArcSize=1;arcSize=14;strokeWidth=2;" parent="1" vertex="1">
          <mxGeometry x="540" y="60" width="120" height="80" as="geometry" />
        </mxCell>
        <mxCell id="e5-biLO_STPXT4ZFqODy-88" style="edgeStyle=orthogonalEdgeStyle;rounded=0;orthogonalLoop=1;jettySize=auto;html=1;" parent="1" source="e5-biLO_STPXT4ZFqODy-39" edge="1">
          <mxGeometry relative="1" as="geometry">
            <mxPoint x="1240" y="240" as="targetPoint" />
          </mxGeometry>
        </mxCell>
        <mxCell id="e5-biLO_STPXT4ZFqODy-103" style="edgeStyle=orthogonalEdgeStyle;rounded=0;orthogonalLoop=1;jettySize=auto;html=1;entryX=1;entryY=0.5;entryDx=0;entryDy=0;entryPerimeter=0;" parent="1" source="e5-biLO_STPXT4ZFqODy-44" target="e5-biLO_STPXT4ZFqODy-66" edge="1">
          <mxGeometry relative="1" as="geometry" />
        </mxCell>
        <mxCell id="e5-biLO_STPXT4ZFqODy-112" value="Populate and export CSV file from the bubble position &amp;amp; radius list across frames" style="rounded=1;whiteSpace=wrap;html=1;absoluteArcSize=1;arcSize=14;strokeWidth=2;" parent="1" vertex="1">
          <mxGeometry x="540" y="340" width="120" height="80" as="geometry" />
        </mxCell>
        <mxCell id="e5-biLO_STPXT4ZFqODy-115" value="Pygame quit" style="strokeWidth=2;html=1;shape=mxgraph.flowchart.start_1;whiteSpace=wrap;" parent="1" vertex="1">
          <mxGeometry x="540" y="480" width="120" height="80" as="geometry" />
        </mxCell>
        <mxCell id="e5-biLO_STPXT4ZFqODy-116" style="edgeStyle=orthogonalEdgeStyle;rounded=0;orthogonalLoop=1;jettySize=auto;html=1;entryX=0.5;entryY=0;entryDx=0;entryDy=0;entryPerimeter=0;" parent="1" source="e5-biLO_STPXT4ZFqODy-112" target="e5-biLO_STPXT4ZFqODy-115" edge="1">
          <mxGeometry relative="1" as="geometry" />
        </mxCell>
      </root>
    </mxGraphModel>
  </diagram>
  <diagram id="HpQI91LeGoqOCYdkyCdx" name="impl_rec-flow">
    <mxGraphModel dx="1194" dy="1993" grid="1" gridSize="10" guides="1" tooltips="1" connect="1" arrows="1" fold="1" page="1" pageScale="1" pageWidth="827" pageHeight="1169" math="0" shadow="0">
      <root>
        <mxCell id="0" />
        <mxCell id="1" parent="0" />
        <mxCell id="ClzhletmtXUXUcRxM1_d-13" style="edgeStyle=orthogonalEdgeStyle;rounded=0;orthogonalLoop=1;jettySize=auto;html=1;entryX=0;entryY=0.5;entryDx=0;entryDy=0;" parent="1" source="anoVwbEHtHufpwEZ1UiM-1" target="KZ5VKlROBGmPKZ0QxrNO-1" edge="1">
          <mxGeometry relative="1" as="geometry">
            <Array as="points">
              <mxPoint x="160" y="320" />
              <mxPoint x="160" y="180" />
            </Array>
          </mxGeometry>
        </mxCell>
        <mxCell id="ClzhletmtXUXUcRxM1_d-14" style="edgeStyle=orthogonalEdgeStyle;rounded=0;orthogonalLoop=1;jettySize=auto;html=1;exitX=1;exitY=0.5;exitDx=0;exitDy=0;exitPerimeter=0;entryX=0;entryY=0.5;entryDx=0;entryDy=0;" parent="1" source="anoVwbEHtHufpwEZ1UiM-1" target="anoVwbEHtHufpwEZ1UiM-2" edge="1">
          <mxGeometry relative="1" as="geometry">
            <Array as="points">
              <mxPoint x="160" y="320" />
              <mxPoint x="160" y="40" />
            </Array>
          </mxGeometry>
        </mxCell>
        <mxCell id="7vfUMZsXmiQhdd3w8dNA-3" style="edgeStyle=orthogonalEdgeStyle;rounded=0;orthogonalLoop=1;jettySize=auto;html=1;entryX=0;entryY=0.5;entryDx=0;entryDy=0;" parent="1" source="anoVwbEHtHufpwEZ1UiM-1" target="7vfUMZsXmiQhdd3w8dNA-2" edge="1">
          <mxGeometry relative="1" as="geometry">
            <Array as="points">
              <mxPoint x="160" y="320" />
              <mxPoint x="160" y="320" />
            </Array>
          </mxGeometry>
        </mxCell>
        <mxCell id="7vfUMZsXmiQhdd3w8dNA-24" style="edgeStyle=orthogonalEdgeStyle;rounded=0;orthogonalLoop=1;jettySize=auto;html=1;entryX=0;entryY=0.5;entryDx=0;entryDy=0;" parent="1" source="anoVwbEHtHufpwEZ1UiM-1" target="KZ5VKlROBGmPKZ0QxrNO-2" edge="1">
          <mxGeometry relative="1" as="geometry">
            <Array as="points">
              <mxPoint x="160" y="320" />
              <mxPoint x="160" y="460" />
            </Array>
          </mxGeometry>
        </mxCell>
        <mxCell id="anoVwbEHtHufpwEZ1UiM-1" value="Start" style="strokeWidth=2;html=1;shape=mxgraph.flowchart.start_2;whiteSpace=wrap;" parent="1" vertex="1">
          <mxGeometry x="40" y="280" width="80" height="80" as="geometry" />
        </mxCell>
        <mxCell id="ClzhletmtXUXUcRxM1_d-18" style="edgeStyle=orthogonalEdgeStyle;rounded=0;orthogonalLoop=1;jettySize=auto;html=1;" parent="1" source="anoVwbEHtHufpwEZ1UiM-2" edge="1">
          <mxGeometry relative="1" as="geometry">
            <mxPoint x="340" y="320" as="targetPoint" />
          </mxGeometry>
        </mxCell>
        <mxCell id="anoVwbEHtHufpwEZ1UiM-2" value="Initialise a Preview window" style="rounded=1;whiteSpace=wrap;html=1;absoluteArcSize=1;arcSize=14;strokeWidth=2;" parent="1" vertex="1">
          <mxGeometry x="180" width="120" height="80" as="geometry" />
        </mxCell>
        <mxCell id="anoVwbEHtHufpwEZ1UiM-4" value="Graceful Python exit" style="strokeWidth=2;html=1;shape=mxgraph.flowchart.start_1;whiteSpace=wrap;" parent="1" vertex="1">
          <mxGeometry x="360" y="420" width="120" height="80" as="geometry" />
        </mxCell>
        <mxCell id="7vfUMZsXmiQhdd3w8dNA-23" style="edgeStyle=orthogonalEdgeStyle;rounded=0;orthogonalLoop=1;jettySize=auto;html=1;" parent="1" source="KZ5VKlROBGmPKZ0QxrNO-1" edge="1">
          <mxGeometry relative="1" as="geometry">
            <mxPoint x="340" y="320" as="targetPoint" />
          </mxGeometry>
        </mxCell>
        <mxCell id="KZ5VKlROBGmPKZ0QxrNO-1" value="Initialise the Projector and write &#39;off&#39; bitmap to Framebuffer" style="rounded=1;whiteSpace=wrap;html=1;absoluteArcSize=1;arcSize=14;strokeWidth=2;" parent="1" vertex="1">
          <mxGeometry x="180" y="140" width="120" height="80" as="geometry" />
        </mxCell>
        <mxCell id="ClzhletmtXUXUcRxM1_d-19" style="edgeStyle=orthogonalEdgeStyle;rounded=0;orthogonalLoop=1;jettySize=auto;html=1;" parent="1" source="KZ5VKlROBGmPKZ0QxrNO-2" edge="1">
          <mxGeometry relative="1" as="geometry">
            <mxPoint x="340" y="320" as="targetPoint" />
          </mxGeometry>
        </mxCell>
        <mxCell id="KZ5VKlROBGmPKZ0QxrNO-2" value="runLoop = True" style="rounded=1;whiteSpace=wrap;html=1;absoluteArcSize=1;arcSize=14;strokeWidth=2;" parent="1" vertex="1">
          <mxGeometry x="180" y="420" width="120" height="80" as="geometry" />
        </mxCell>
        <mxCell id="7vfUMZsXmiQhdd3w8dNA-10" style="edgeStyle=orthogonalEdgeStyle;rounded=0;orthogonalLoop=1;jettySize=auto;html=1;entryX=0;entryY=0.5;entryDx=0;entryDy=0;" parent="1" source="KZ5VKlROBGmPKZ0QxrNO-4" target="ClzhletmtXUXUcRxM1_d-3" edge="1">
          <mxGeometry relative="1" as="geometry">
            <Array as="points">
              <mxPoint x="520" y="320" />
              <mxPoint x="520" y="40" />
            </Array>
          </mxGeometry>
        </mxCell>
        <mxCell id="7vfUMZsXmiQhdd3w8dNA-12" style="edgeStyle=orthogonalEdgeStyle;rounded=0;orthogonalLoop=1;jettySize=auto;html=1;entryX=0;entryY=0.5;entryDx=0;entryDy=0;" parent="1" source="KZ5VKlROBGmPKZ0QxrNO-4" target="7vfUMZsXmiQhdd3w8dNA-6" edge="1">
          <mxGeometry relative="1" as="geometry">
            <Array as="points">
              <mxPoint x="520" y="320" />
              <mxPoint x="520" y="460" />
            </Array>
          </mxGeometry>
        </mxCell>
        <mxCell id="7vfUMZsXmiQhdd3w8dNA-13" style="edgeStyle=orthogonalEdgeStyle;rounded=0;orthogonalLoop=1;jettySize=auto;html=1;entryX=0;entryY=0.5;entryDx=0;entryDy=0;" parent="1" source="KZ5VKlROBGmPKZ0QxrNO-4" target="ClzhletmtXUXUcRxM1_d-2" edge="1">
          <mxGeometry relative="1" as="geometry">
            <Array as="points">
              <mxPoint x="520" y="320" />
              <mxPoint x="520" y="600" />
            </Array>
          </mxGeometry>
        </mxCell>
        <mxCell id="7vfUMZsXmiQhdd3w8dNA-17" value="TRUE" style="edgeLabel;html=1;align=center;verticalAlign=middle;resizable=0;points=[];" parent="7vfUMZsXmiQhdd3w8dNA-13" vertex="1" connectable="0">
          <mxGeometry x="-0.9294" y="1" relative="1" as="geometry">
            <mxPoint x="8" y="1" as="offset" />
          </mxGeometry>
        </mxCell>
        <mxCell id="KZ5VKlROBGmPKZ0QxrNO-4" value="runLoop = True?" style="strokeWidth=2;html=1;shape=mxgraph.flowchart.decision;whiteSpace=wrap;" parent="1" vertex="1">
          <mxGeometry x="360" y="280" width="120" height="80" as="geometry" />
        </mxCell>
        <mxCell id="wPvWedlRBxy36LdMuK9W-46" style="edgeStyle=orthogonalEdgeStyle;rounded=0;orthogonalLoop=1;jettySize=auto;html=1;" parent="1" source="ClzhletmtXUXUcRxM1_d-2" edge="1">
          <mxGeometry relative="1" as="geometry">
            <mxPoint x="700" y="320" as="targetPoint" />
          </mxGeometry>
        </mxCell>
        <mxCell id="ClzhletmtXUXUcRxM1_d-2" value="Retrieve and store user keypress from Preview window" style="rounded=1;whiteSpace=wrap;html=1;absoluteArcSize=1;arcSize=14;strokeWidth=2;" parent="1" vertex="1">
          <mxGeometry x="540" y="560" width="120" height="80" as="geometry" />
        </mxCell>
        <mxCell id="wPvWedlRBxy36LdMuK9W-52" style="edgeStyle=orthogonalEdgeStyle;rounded=0;orthogonalLoop=1;jettySize=auto;html=1;entryX=0.5;entryY=0;entryDx=0;entryDy=0;" parent="1" source="ClzhletmtXUXUcRxM1_d-3" target="ClzhletmtXUXUcRxM1_d-4" edge="1">
          <mxGeometry relative="1" as="geometry" />
        </mxCell>
        <mxCell id="ClzhletmtXUXUcRxM1_d-3" value="Capture sensor array from RPi Camera as frame" style="rounded=1;whiteSpace=wrap;html=1;absoluteArcSize=1;arcSize=14;strokeWidth=2;" parent="1" vertex="1">
          <mxGeometry x="540" width="120" height="80" as="geometry" />
        </mxCell>
        <mxCell id="wPvWedlRBxy36LdMuK9W-50" style="edgeStyle=orthogonalEdgeStyle;rounded=0;orthogonalLoop=1;jettySize=auto;html=1;entryX=0.5;entryY=0;entryDx=0;entryDy=0;" parent="1" source="ClzhletmtXUXUcRxM1_d-4" target="ClzhletmtXUXUcRxM1_d-5" edge="1">
          <mxGeometry relative="1" as="geometry" />
        </mxCell>
        <mxCell id="ClzhletmtXUXUcRxM1_d-4" value="Retrieve and store the camera&#39;s recording status" style="rounded=1;whiteSpace=wrap;html=1;absoluteArcSize=1;arcSize=14;strokeWidth=2;" parent="1" vertex="1">
          <mxGeometry x="540" y="140" width="120" height="80" as="geometry" />
        </mxCell>
        <mxCell id="ClzhletmtXUXUcRxM1_d-5" value="Update preview window with the frame, overlaying the light and recording statuses" style="rounded=1;whiteSpace=wrap;html=1;absoluteArcSize=1;arcSize=14;strokeWidth=2;" parent="1" vertex="1">
          <mxGeometry x="540" y="280" width="120" height="80" as="geometry" />
        </mxCell>
        <mxCell id="ClzhletmtXUXUcRxM1_d-6" value="keypress = &#39;L&#39;?" style="strokeWidth=2;html=1;shape=mxgraph.flowchart.decision;whiteSpace=wrap;" parent="1" vertex="1">
          <mxGeometry x="720" y="280" width="120" height="80" as="geometry" />
        </mxCell>
        <mxCell id="wPvWedlRBxy36LdMuK9W-19" style="edgeStyle=orthogonalEdgeStyle;rounded=0;orthogonalLoop=1;jettySize=auto;html=1;entryX=0.5;entryY=1;entryDx=0;entryDy=0;" parent="1" source="ClzhletmtXUXUcRxM1_d-10" target="ClzhletmtXUXUcRxM1_d-12" edge="1">
          <mxGeometry relative="1" as="geometry" />
        </mxCell>
        <mxCell id="wPvWedlRBxy36LdMuK9W-20" value="TRUE" style="edgeLabel;html=1;align=center;verticalAlign=middle;resizable=0;points=[];" parent="wPvWedlRBxy36LdMuK9W-19" vertex="1" connectable="0">
          <mxGeometry x="-0.081" y="-1" relative="1" as="geometry">
            <mxPoint as="offset" />
          </mxGeometry>
        </mxCell>
        <mxCell id="wPvWedlRBxy36LdMuK9W-21" style="edgeStyle=orthogonalEdgeStyle;rounded=0;orthogonalLoop=1;jettySize=auto;html=1;entryX=0.5;entryY=0;entryDx=0;entryDy=0;" parent="1" source="ClzhletmtXUXUcRxM1_d-10" target="ClzhletmtXUXUcRxM1_d-11" edge="1">
          <mxGeometry relative="1" as="geometry" />
        </mxCell>
        <mxCell id="wPvWedlRBxy36LdMuK9W-22" value="FALSE" style="edgeLabel;html=1;align=center;verticalAlign=middle;resizable=0;points=[];" parent="wPvWedlRBxy36LdMuK9W-21" vertex="1" connectable="0">
          <mxGeometry x="-0.1095" y="1" relative="1" as="geometry">
            <mxPoint as="offset" />
          </mxGeometry>
        </mxCell>
        <mxCell id="wPvWedlRBxy36LdMuK9W-34" value="" style="edgeStyle=orthogonalEdgeStyle;rounded=0;orthogonalLoop=1;jettySize=auto;html=1;" parent="1" source="ClzhletmtXUXUcRxM1_d-10" target="ClzhletmtXUXUcRxM1_d-12" edge="1">
          <mxGeometry relative="1" as="geometry" />
        </mxCell>
        <mxCell id="ClzhletmtXUXUcRxM1_d-10" value="light on?" style="strokeWidth=2;html=1;shape=mxgraph.flowchart.decision;whiteSpace=wrap;" parent="1" vertex="1">
          <mxGeometry x="900" y="280" width="120" height="80" as="geometry" />
        </mxCell>
        <mxCell id="ClzhletmtXUXUcRxM1_d-11" value="Write &#39;on&#39; bitmap to Framebuffer" style="rounded=1;whiteSpace=wrap;html=1;absoluteArcSize=1;arcSize=14;strokeWidth=2;" parent="1" vertex="1">
          <mxGeometry x="900" y="420" width="120" height="80" as="geometry" />
        </mxCell>
        <mxCell id="ClzhletmtXUXUcRxM1_d-12" value="Write &#39;off&#39; bitmap to Framebuffer" style="rounded=1;whiteSpace=wrap;html=1;absoluteArcSize=1;arcSize=14;strokeWidth=2;" parent="1" vertex="1">
          <mxGeometry x="900" y="140" width="120" height="80" as="geometry" />
        </mxCell>
        <mxCell id="DrNBWjfPpesiUbhMuuPn-4" value="keypress = &#39;R&#39;?" style="strokeWidth=2;html=1;shape=mxgraph.flowchart.decision;whiteSpace=wrap;" parent="1" vertex="1">
          <mxGeometry x="1080" y="280" width="120" height="80" as="geometry" />
        </mxCell>
        <mxCell id="wPvWedlRBxy36LdMuK9W-30" style="edgeStyle=orthogonalEdgeStyle;rounded=0;orthogonalLoop=1;jettySize=auto;html=1;entryX=0.5;entryY=0;entryDx=0;entryDy=0;" parent="1" source="7vfUMZsXmiQhdd3w8dNA-1" target="7vfUMZsXmiQhdd3w8dNA-18" edge="1">
          <mxGeometry relative="1" as="geometry" />
        </mxCell>
        <mxCell id="wPvWedlRBxy36LdMuK9W-33" value="FALSE" style="edgeLabel;html=1;align=center;verticalAlign=middle;resizable=0;points=[];" parent="wPvWedlRBxy36LdMuK9W-30" vertex="1" connectable="0">
          <mxGeometry x="-0.6333" relative="1" as="geometry">
            <mxPoint as="offset" />
          </mxGeometry>
        </mxCell>
        <mxCell id="wPvWedlRBxy36LdMuK9W-35" style="edgeStyle=orthogonalEdgeStyle;rounded=0;orthogonalLoop=1;jettySize=auto;html=1;entryX=0.5;entryY=1;entryDx=0;entryDy=0;" parent="1" source="7vfUMZsXmiQhdd3w8dNA-1" target="7vfUMZsXmiQhdd3w8dNA-20" edge="1">
          <mxGeometry relative="1" as="geometry" />
        </mxCell>
        <mxCell id="wPvWedlRBxy36LdMuK9W-37" value="TRUE" style="edgeLabel;html=1;align=center;verticalAlign=middle;resizable=0;points=[];" parent="wPvWedlRBxy36LdMuK9W-35" vertex="1" connectable="0">
          <mxGeometry x="-0.2238" relative="1" as="geometry">
            <mxPoint as="offset" />
          </mxGeometry>
        </mxCell>
        <mxCell id="7vfUMZsXmiQhdd3w8dNA-1" value="recording?" style="strokeWidth=2;html=1;shape=mxgraph.flowchart.decision;whiteSpace=wrap;" parent="1" vertex="1">
          <mxGeometry x="1260" y="280" width="120" height="80" as="geometry" />
        </mxCell>
        <mxCell id="7vfUMZsXmiQhdd3w8dNA-4" style="edgeStyle=orthogonalEdgeStyle;rounded=0;orthogonalLoop=1;jettySize=auto;html=1;entryX=0;entryY=0.5;entryDx=0;entryDy=0;entryPerimeter=0;" parent="1" source="7vfUMZsXmiQhdd3w8dNA-2" target="KZ5VKlROBGmPKZ0QxrNO-4" edge="1">
          <mxGeometry relative="1" as="geometry">
            <mxPoint x="340" y="320" as="targetPoint" />
          </mxGeometry>
        </mxCell>
        <mxCell id="7vfUMZsXmiQhdd3w8dNA-2" value="Initialise Picamera2 instance, apply configuration to RPi camera, start the RPi camera" style="rounded=1;whiteSpace=wrap;html=1;absoluteArcSize=1;arcSize=14;strokeWidth=2;" parent="1" vertex="1">
          <mxGeometry x="180" y="280" width="120" height="80" as="geometry" />
        </mxCell>
        <mxCell id="wPvWedlRBxy36LdMuK9W-51" style="edgeStyle=orthogonalEdgeStyle;rounded=0;orthogonalLoop=1;jettySize=auto;html=1;entryX=0.5;entryY=1;entryDx=0;entryDy=0;" parent="1" source="7vfUMZsXmiQhdd3w8dNA-6" target="ClzhletmtXUXUcRxM1_d-5" edge="1">
          <mxGeometry relative="1" as="geometry" />
        </mxCell>
        <mxCell id="7vfUMZsXmiQhdd3w8dNA-6" value="Retrieve and store the light status" style="rounded=1;whiteSpace=wrap;html=1;absoluteArcSize=1;arcSize=14;strokeWidth=2;" parent="1" vertex="1">
          <mxGeometry x="540" y="420" width="120" height="80" as="geometry" />
        </mxCell>
        <mxCell id="wPvWedlRBxy36LdMuK9W-31" style="edgeStyle=orthogonalEdgeStyle;rounded=0;orthogonalLoop=1;jettySize=auto;html=1;entryX=0.5;entryY=0;entryDx=0;entryDy=0;" parent="1" source="7vfUMZsXmiQhdd3w8dNA-18" target="7vfUMZsXmiQhdd3w8dNA-19" edge="1">
          <mxGeometry relative="1" as="geometry" />
        </mxCell>
        <mxCell id="7vfUMZsXmiQhdd3w8dNA-18" value="Initialise memory buffer and set Picamera2 to record directly to this" style="rounded=1;whiteSpace=wrap;html=1;absoluteArcSize=1;arcSize=14;strokeWidth=2;" parent="1" vertex="1">
          <mxGeometry x="1260" y="420" width="120" height="80" as="geometry" />
        </mxCell>
        <mxCell id="wPvWedlRBxy36LdMuK9W-32" style="edgeStyle=orthogonalEdgeStyle;rounded=0;orthogonalLoop=1;jettySize=auto;html=1;" parent="1" source="7vfUMZsXmiQhdd3w8dNA-19" edge="1">
          <mxGeometry relative="1" as="geometry">
            <mxPoint x="1420" y="600" as="targetPoint" />
          </mxGeometry>
        </mxCell>
        <mxCell id="7vfUMZsXmiQhdd3w8dNA-19" value="Initialise Picamera2 NullEncoder to not apply any encoding and start recording" style="rounded=1;whiteSpace=wrap;html=1;absoluteArcSize=1;arcSize=14;strokeWidth=2;" parent="1" vertex="1">
          <mxGeometry x="1260" y="560" width="120" height="80" as="geometry" />
        </mxCell>
        <mxCell id="wPvWedlRBxy36LdMuK9W-36" style="edgeStyle=orthogonalEdgeStyle;rounded=0;orthogonalLoop=1;jettySize=auto;html=1;entryX=0.5;entryY=1;entryDx=0;entryDy=0;" parent="1" source="7vfUMZsXmiQhdd3w8dNA-20" target="7vfUMZsXmiQhdd3w8dNA-21" edge="1">
          <mxGeometry relative="1" as="geometry" />
        </mxCell>
        <mxCell id="7vfUMZsXmiQhdd3w8dNA-20" value="Send stop recording signal to Picamera2" style="rounded=1;whiteSpace=wrap;html=1;absoluteArcSize=1;arcSize=14;strokeWidth=2;" parent="1" vertex="1">
          <mxGeometry x="1260" y="140" width="120" height="80" as="geometry" />
        </mxCell>
        <mxCell id="7vfUMZsXmiQhdd3w8dNA-21" value="Offload data from memory buffer on to boot drive, applying FFV1 lossless encoding via FFmpeg" style="rounded=1;whiteSpace=wrap;html=1;absoluteArcSize=1;arcSize=14;strokeWidth=2;" parent="1" vertex="1">
          <mxGeometry x="1260" width="120" height="80" as="geometry" />
        </mxCell>
        <mxCell id="wPvWedlRBxy36LdMuK9W-1" style="edgeStyle=orthogonalEdgeStyle;rounded=0;orthogonalLoop=1;jettySize=auto;html=1;entryX=0;entryY=0.5;entryDx=0;entryDy=0;" parent="1" source="7vfUMZsXmiQhdd3w8dNA-22" target="7vfUMZsXmiQhdd3w8dNA-26" edge="1">
          <mxGeometry relative="1" as="geometry" />
        </mxCell>
        <mxCell id="wPvWedlRBxy36LdMuK9W-2" style="edgeStyle=orthogonalEdgeStyle;rounded=0;orthogonalLoop=1;jettySize=auto;html=1;entryX=0;entryY=0.5;entryDx=0;entryDy=0;" parent="1" source="7vfUMZsXmiQhdd3w8dNA-22" target="7vfUMZsXmiQhdd3w8dNA-25" edge="1">
          <mxGeometry relative="1" as="geometry">
            <Array as="points">
              <mxPoint x="1600" y="320" />
              <mxPoint x="1600" y="180" />
            </Array>
          </mxGeometry>
        </mxCell>
        <mxCell id="wPvWedlRBxy36LdMuK9W-3" style="edgeStyle=orthogonalEdgeStyle;rounded=0;orthogonalLoop=1;jettySize=auto;html=1;entryX=0;entryY=0.5;entryDx=0;entryDy=0;" parent="1" source="7vfUMZsXmiQhdd3w8dNA-22" target="7vfUMZsXmiQhdd3w8dNA-27" edge="1">
          <mxGeometry relative="1" as="geometry">
            <Array as="points">
              <mxPoint x="1600" y="320" />
              <mxPoint x="1600" y="460" />
            </Array>
          </mxGeometry>
        </mxCell>
        <mxCell id="wPvWedlRBxy36LdMuK9W-10" style="edgeStyle=orthogonalEdgeStyle;rounded=0;orthogonalLoop=1;jettySize=auto;html=1;entryX=0;entryY=0.5;entryDx=0;entryDy=0;" parent="1" source="7vfUMZsXmiQhdd3w8dNA-22" target="wPvWedlRBxy36LdMuK9W-9" edge="1">
          <mxGeometry relative="1" as="geometry">
            <Array as="points">
              <mxPoint x="1600" y="320" />
              <mxPoint x="1600" y="40" />
            </Array>
          </mxGeometry>
        </mxCell>
        <mxCell id="wPvWedlRBxy36LdMuK9W-41" value="TRUE" style="edgeLabel;html=1;align=center;verticalAlign=middle;resizable=0;points=[];" parent="wPvWedlRBxy36LdMuK9W-10" vertex="1" connectable="0">
          <mxGeometry x="-0.9101" y="2" relative="1" as="geometry">
            <mxPoint as="offset" />
          </mxGeometry>
        </mxCell>
        <mxCell id="wPvWedlRBxy36LdMuK9W-12" style="edgeStyle=orthogonalEdgeStyle;rounded=0;orthogonalLoop=1;jettySize=auto;html=1;" parent="1" source="7vfUMZsXmiQhdd3w8dNA-22" edge="1">
          <mxGeometry relative="1" as="geometry">
            <mxPoint x="520" y="600" as="targetPoint" />
            <Array as="points">
              <mxPoint x="1500" y="720" />
              <mxPoint x="520" y="720" />
              <mxPoint x="520" y="620" />
            </Array>
          </mxGeometry>
        </mxCell>
        <mxCell id="wPvWedlRBxy36LdMuK9W-40" value="FALSE" style="edgeLabel;html=1;align=center;verticalAlign=middle;resizable=0;points=[];" parent="wPvWedlRBxy36LdMuK9W-12" vertex="1" connectable="0">
          <mxGeometry x="-0.9693" y="1" relative="1" as="geometry">
            <mxPoint as="offset" />
          </mxGeometry>
        </mxCell>
        <mxCell id="7vfUMZsXmiQhdd3w8dNA-22" value="keypress = &#39;E&#39;?" style="strokeWidth=2;html=1;shape=mxgraph.flowchart.decision;whiteSpace=wrap;" parent="1" vertex="1">
          <mxGeometry x="1440" y="280" width="120" height="80" as="geometry" />
        </mxCell>
        <mxCell id="wPvWedlRBxy36LdMuK9W-11" style="edgeStyle=orthogonalEdgeStyle;rounded=0;orthogonalLoop=1;jettySize=auto;html=1;" parent="1" source="7vfUMZsXmiQhdd3w8dNA-25" edge="1">
          <mxGeometry relative="1" as="geometry">
            <mxPoint x="1800" y="180" as="targetPoint" />
          </mxGeometry>
        </mxCell>
        <mxCell id="7vfUMZsXmiQhdd3w8dNA-25" value="Send shutdown signal to Picamera2" style="rounded=1;whiteSpace=wrap;html=1;absoluteArcSize=1;arcSize=14;strokeWidth=2;" parent="1" vertex="1">
          <mxGeometry x="1620" y="140" width="120" height="80" as="geometry" />
        </mxCell>
        <mxCell id="wPvWedlRBxy36LdMuK9W-4" style="edgeStyle=orthogonalEdgeStyle;rounded=0;orthogonalLoop=1;jettySize=auto;html=1;exitX=1;exitY=0.5;exitDx=0;exitDy=0;" parent="1" source="wPvWedlRBxy36LdMuK9W-9" edge="1">
          <mxGeometry relative="1" as="geometry">
            <mxPoint x="320" y="460" as="targetPoint" />
            <Array as="points">
              <mxPoint x="1800" y="40" />
              <mxPoint x="1800" y="740" />
              <mxPoint x="320" y="740" />
              <mxPoint x="320" y="460" />
            </Array>
          </mxGeometry>
        </mxCell>
        <mxCell id="wPvWedlRBxy36LdMuK9W-7" style="edgeStyle=orthogonalEdgeStyle;rounded=0;orthogonalLoop=1;jettySize=auto;html=1;" parent="1" source="7vfUMZsXmiQhdd3w8dNA-26" edge="1">
          <mxGeometry relative="1" as="geometry">
            <mxPoint x="1800" y="320" as="targetPoint" />
          </mxGeometry>
        </mxCell>
        <mxCell id="7vfUMZsXmiQhdd3w8dNA-26" value="Write &#39;off&#39; bitmap to Framebuffer" style="rounded=1;whiteSpace=wrap;html=1;absoluteArcSize=1;arcSize=14;strokeWidth=2;" parent="1" vertex="1">
          <mxGeometry x="1620" y="280" width="120" height="80" as="geometry" />
        </mxCell>
        <mxCell id="wPvWedlRBxy36LdMuK9W-6" style="edgeStyle=orthogonalEdgeStyle;rounded=0;orthogonalLoop=1;jettySize=auto;html=1;" parent="1" source="7vfUMZsXmiQhdd3w8dNA-27" edge="1">
          <mxGeometry relative="1" as="geometry">
            <mxPoint x="1800" y="460" as="targetPoint" />
          </mxGeometry>
        </mxCell>
        <mxCell id="7vfUMZsXmiQhdd3w8dNA-27" value="Send destroy GUI windows signal to OpenCV" style="rounded=1;whiteSpace=wrap;html=1;absoluteArcSize=1;arcSize=14;strokeWidth=2;" parent="1" vertex="1">
          <mxGeometry x="1620" y="420" width="120" height="80" as="geometry" />
        </mxCell>
        <mxCell id="wPvWedlRBxy36LdMuK9W-9" value="runLoop = False" style="rounded=1;whiteSpace=wrap;html=1;absoluteArcSize=1;arcSize=14;strokeWidth=2;" parent="1" vertex="1">
          <mxGeometry x="1620" width="120" height="80" as="geometry" />
        </mxCell>
        <mxCell id="wPvWedlRBxy36LdMuK9W-13" style="edgeStyle=orthogonalEdgeStyle;rounded=0;orthogonalLoop=1;jettySize=auto;html=1;entryX=0;entryY=0.5;entryDx=0;entryDy=0;entryPerimeter=0;" parent="1" source="ClzhletmtXUXUcRxM1_d-5" target="ClzhletmtXUXUcRxM1_d-6" edge="1">
          <mxGeometry relative="1" as="geometry" />
        </mxCell>
        <mxCell id="wPvWedlRBxy36LdMuK9W-14" style="edgeStyle=orthogonalEdgeStyle;rounded=0;orthogonalLoop=1;jettySize=auto;html=1;entryX=0;entryY=0.5;entryDx=0;entryDy=0;entryPerimeter=0;" parent="1" source="ClzhletmtXUXUcRxM1_d-6" target="ClzhletmtXUXUcRxM1_d-10" edge="1">
          <mxGeometry relative="1" as="geometry" />
        </mxCell>
        <mxCell id="wPvWedlRBxy36LdMuK9W-17" value="TRUE" style="edgeLabel;html=1;align=center;verticalAlign=middle;resizable=0;points=[];" parent="wPvWedlRBxy36LdMuK9W-14" vertex="1" connectable="0">
          <mxGeometry x="-0.1571" y="2" relative="1" as="geometry">
            <mxPoint as="offset" />
          </mxGeometry>
        </mxCell>
        <mxCell id="wPvWedlRBxy36LdMuK9W-16" style="edgeStyle=orthogonalEdgeStyle;rounded=0;orthogonalLoop=1;jettySize=auto;html=1;entryX=0;entryY=0.5;entryDx=0;entryDy=0;entryPerimeter=0;" parent="1" source="DrNBWjfPpesiUbhMuuPn-4" target="7vfUMZsXmiQhdd3w8dNA-1" edge="1">
          <mxGeometry relative="1" as="geometry" />
        </mxCell>
        <mxCell id="wPvWedlRBxy36LdMuK9W-27" value="TRUE" style="edgeLabel;html=1;align=center;verticalAlign=middle;resizable=0;points=[];" parent="wPvWedlRBxy36LdMuK9W-16" vertex="1" connectable="0">
          <mxGeometry x="-0.2048" y="2" relative="1" as="geometry">
            <mxPoint as="offset" />
          </mxGeometry>
        </mxCell>
        <mxCell id="wPvWedlRBxy36LdMuK9W-23" style="edgeStyle=orthogonalEdgeStyle;rounded=0;orthogonalLoop=1;jettySize=auto;html=1;entryX=0.5;entryY=0;entryDx=0;entryDy=0;entryPerimeter=0;" parent="1" source="ClzhletmtXUXUcRxM1_d-6" target="DrNBWjfPpesiUbhMuuPn-4" edge="1">
          <mxGeometry relative="1" as="geometry">
            <Array as="points">
              <mxPoint x="780" y="110" />
              <mxPoint x="1140" y="110" />
            </Array>
          </mxGeometry>
        </mxCell>
        <mxCell id="wPvWedlRBxy36LdMuK9W-24" value="FALSE" style="edgeLabel;html=1;align=center;verticalAlign=middle;resizable=0;points=[];" parent="wPvWedlRBxy36LdMuK9W-23" vertex="1" connectable="0">
          <mxGeometry x="-0.9416" y="2" relative="1" as="geometry">
            <mxPoint as="offset" />
          </mxGeometry>
        </mxCell>
        <mxCell id="wPvWedlRBxy36LdMuK9W-25" style="edgeStyle=orthogonalEdgeStyle;rounded=0;orthogonalLoop=1;jettySize=auto;html=1;entryX=0;entryY=0.5;entryDx=0;entryDy=0;entryPerimeter=0;" parent="1" source="ClzhletmtXUXUcRxM1_d-12" target="DrNBWjfPpesiUbhMuuPn-4" edge="1">
          <mxGeometry relative="1" as="geometry">
            <Array as="points">
              <mxPoint x="1060" y="180" />
              <mxPoint x="1060" y="320" />
            </Array>
          </mxGeometry>
        </mxCell>
        <mxCell id="wPvWedlRBxy36LdMuK9W-26" style="edgeStyle=orthogonalEdgeStyle;rounded=0;orthogonalLoop=1;jettySize=auto;html=1;entryX=0;entryY=0.5;entryDx=0;entryDy=0;entryPerimeter=0;" parent="1" source="ClzhletmtXUXUcRxM1_d-11" target="DrNBWjfPpesiUbhMuuPn-4" edge="1">
          <mxGeometry relative="1" as="geometry">
            <Array as="points">
              <mxPoint x="1060" y="460" />
              <mxPoint x="1060" y="320" />
            </Array>
          </mxGeometry>
        </mxCell>
        <mxCell id="wPvWedlRBxy36LdMuK9W-28" style="edgeStyle=orthogonalEdgeStyle;rounded=0;orthogonalLoop=1;jettySize=auto;html=1;entryX=0;entryY=0.5;entryDx=0;entryDy=0;entryPerimeter=0;" parent="1" source="DrNBWjfPpesiUbhMuuPn-4" target="7vfUMZsXmiQhdd3w8dNA-22" edge="1">
          <mxGeometry relative="1" as="geometry">
            <Array as="points">
              <mxPoint x="1140" y="700" />
              <mxPoint x="1420" y="700" />
              <mxPoint x="1420" y="320" />
            </Array>
          </mxGeometry>
        </mxCell>
        <mxCell id="wPvWedlRBxy36LdMuK9W-29" value="FALSE" style="edgeLabel;html=1;align=center;verticalAlign=middle;resizable=0;points=[];" parent="wPvWedlRBxy36LdMuK9W-28" vertex="1" connectable="0">
          <mxGeometry x="-0.9644" y="1" relative="1" as="geometry">
            <mxPoint as="offset" />
          </mxGeometry>
        </mxCell>
        <mxCell id="wPvWedlRBxy36LdMuK9W-38" style="edgeStyle=orthogonalEdgeStyle;rounded=0;orthogonalLoop=1;jettySize=auto;html=1;entryX=0;entryY=0.5;entryDx=0;entryDy=0;entryPerimeter=0;" parent="1" source="7vfUMZsXmiQhdd3w8dNA-21" target="7vfUMZsXmiQhdd3w8dNA-22" edge="1">
          <mxGeometry relative="1" as="geometry">
            <Array as="points">
              <mxPoint x="1420" y="40" />
              <mxPoint x="1420" y="320" />
            </Array>
          </mxGeometry>
        </mxCell>
        <mxCell id="wPvWedlRBxy36LdMuK9W-42" style="edgeStyle=orthogonalEdgeStyle;rounded=0;orthogonalLoop=1;jettySize=auto;html=1;entryX=0.5;entryY=0;entryDx=0;entryDy=0;entryPerimeter=0;" parent="1" source="KZ5VKlROBGmPKZ0QxrNO-4" target="anoVwbEHtHufpwEZ1UiM-4" edge="1">
          <mxGeometry relative="1" as="geometry" />
        </mxCell>
        <mxCell id="wPvWedlRBxy36LdMuK9W-43" value="FALSE" style="edgeLabel;html=1;align=center;verticalAlign=middle;resizable=0;points=[];" parent="wPvWedlRBxy36LdMuK9W-42" vertex="1" connectable="0">
          <mxGeometry x="-0.5381" y="1" relative="1" as="geometry">
            <mxPoint as="offset" />
          </mxGeometry>
        </mxCell>
      </root>
    </mxGraphModel>
  </diagram>
  <diagram id="K8D3sVR4vA-U4uXi3dNG" name="impl_system-flow">
    <mxGraphModel dx="1194" dy="1993" grid="1" gridSize="10" guides="1" tooltips="1" connect="1" arrows="1" fold="1" page="1" pageScale="1" pageWidth="827" pageHeight="1169" math="0" shadow="0">
      <root>
        <mxCell id="0" />
        <mxCell id="1" parent="0" />
        <mxCell id="eGveahzySLRFpZ9VcZL--16" style="edgeStyle=orthogonalEdgeStyle;rounded=0;orthogonalLoop=1;jettySize=auto;html=1;entryX=0;entryY=0.5;entryDx=0;entryDy=0;" parent="1" source="PU1i3gukm9adVT86kIoZ-1" target="trEyPfGM2nonubFq6iDf-1" edge="1">
          <mxGeometry relative="1" as="geometry" />
        </mxCell>
        <mxCell id="PU1i3gukm9adVT86kIoZ-1" value="Start" style="strokeWidth=2;html=1;shape=mxgraph.flowchart.start_2;whiteSpace=wrap;" parent="1" vertex="1">
          <mxGeometry x="40" y="280" width="80" height="80" as="geometry" />
        </mxCell>
        <mxCell id="trEyPfGM2nonubFq6iDf-1" value="Set and validate program OS priority &#39;nice&#39; level" style="rounded=1;whiteSpace=wrap;html=1;absoluteArcSize=1;arcSize=14;strokeWidth=2;" parent="1" vertex="1">
          <mxGeometry x="180" y="280" width="120" height="80" as="geometry" />
        </mxCell>
        <mxCell id="eGveahzySLRFpZ9VcZL--5" style="edgeStyle=orthogonalEdgeStyle;rounded=0;orthogonalLoop=1;jettySize=auto;html=1;entryX=0;entryY=0.5;entryDx=0;entryDy=0;" parent="1" source="eGveahzySLRFpZ9VcZL--1" target="eGveahzySLRFpZ9VcZL--2" edge="1">
          <mxGeometry relative="1" as="geometry" />
        </mxCell>
        <mxCell id="eGveahzySLRFpZ9VcZL--9" value="FrameStream" style="edgeLabel;html=1;align=center;verticalAlign=middle;resizable=0;points=[];" parent="eGveahzySLRFpZ9VcZL--5" vertex="1" connectable="0">
          <mxGeometry x="-0.2" y="-2" relative="1" as="geometry">
            <mxPoint y="8" as="offset" />
          </mxGeometry>
        </mxCell>
        <mxCell id="eGveahzySLRFpZ9VcZL--10" style="edgeStyle=orthogonalEdgeStyle;rounded=0;orthogonalLoop=1;jettySize=auto;html=1;entryX=0;entryY=0.5;entryDx=0;entryDy=0;" parent="1" source="eGveahzySLRFpZ9VcZL--1" target="eGveahzySLRFpZ9VcZL--3" edge="1">
          <mxGeometry relative="1" as="geometry">
            <Array as="points">
              <mxPoint x="420" y="180" />
            </Array>
          </mxGeometry>
        </mxCell>
        <mxCell id="eGveahzySLRFpZ9VcZL--11" value="Pi Camera Stream" style="edgeLabel;html=1;align=center;verticalAlign=middle;resizable=0;points=[];" parent="eGveahzySLRFpZ9VcZL--10" vertex="1" connectable="0">
          <mxGeometry x="0.4727" y="2" relative="1" as="geometry">
            <mxPoint as="offset" />
          </mxGeometry>
        </mxCell>
        <mxCell id="eGveahzySLRFpZ9VcZL--12" style="edgeStyle=orthogonalEdgeStyle;rounded=0;orthogonalLoop=1;jettySize=auto;html=1;entryX=0;entryY=0.5;entryDx=0;entryDy=0;" parent="1" source="eGveahzySLRFpZ9VcZL--1" target="eGveahzySLRFpZ9VcZL--4" edge="1">
          <mxGeometry relative="1" as="geometry">
            <Array as="points">
              <mxPoint x="420" y="460" />
            </Array>
          </mxGeometry>
        </mxCell>
        <mxCell id="eGveahzySLRFpZ9VcZL--13" value="VideoStream" style="edgeLabel;html=1;align=center;verticalAlign=middle;resizable=0;points=[];" parent="eGveahzySLRFpZ9VcZL--12" vertex="1" connectable="0">
          <mxGeometry x="0.4636" relative="1" as="geometry">
            <mxPoint as="offset" />
          </mxGeometry>
        </mxCell>
        <mxCell id="eGveahzySLRFpZ9VcZL--1" value="VideoCapture&lt;div&gt;type?&lt;/div&gt;" style="strokeWidth=2;html=1;shape=mxgraph.flowchart.decision;whiteSpace=wrap;" parent="1" vertex="1">
          <mxGeometry x="360" y="280" width="120" height="80" as="geometry" />
        </mxCell>
        <mxCell id="eGveahzySLRFpZ9VcZL--15" style="edgeStyle=orthogonalEdgeStyle;rounded=0;orthogonalLoop=1;jettySize=auto;html=1;entryX=0;entryY=0.5;entryDx=0;entryDy=0;" parent="1" source="eGveahzySLRFpZ9VcZL--2" target="eGveahzySLRFpZ9VcZL--14" edge="1">
          <mxGeometry relative="1" as="geometry" />
        </mxCell>
        <mxCell id="eGveahzySLRFpZ9VcZL--2" value="Initialise Frame stream" style="rounded=1;whiteSpace=wrap;html=1;absoluteArcSize=1;arcSize=14;strokeWidth=2;" parent="1" vertex="1">
          <mxGeometry x="540" y="280" width="120" height="80" as="geometry" />
        </mxCell>
        <mxCell id="Jw8HkO5E1I3ThNMeyRhE-12" style="edgeStyle=orthogonalEdgeStyle;rounded=0;orthogonalLoop=1;jettySize=auto;html=1;" parent="1" source="eGveahzySLRFpZ9VcZL--3" edge="1">
          <mxGeometry relative="1" as="geometry">
            <mxPoint x="700" y="320" as="targetPoint" />
          </mxGeometry>
        </mxCell>
        <mxCell id="eGveahzySLRFpZ9VcZL--3" value="Initialise RPi Camera Stream" style="rounded=1;whiteSpace=wrap;html=1;absoluteArcSize=1;arcSize=14;strokeWidth=2;" parent="1" vertex="1">
          <mxGeometry x="540" y="140" width="120" height="80" as="geometry" />
        </mxCell>
        <mxCell id="Jw8HkO5E1I3ThNMeyRhE-13" style="edgeStyle=orthogonalEdgeStyle;rounded=0;orthogonalLoop=1;jettySize=auto;html=1;" parent="1" source="eGveahzySLRFpZ9VcZL--4" edge="1">
          <mxGeometry relative="1" as="geometry">
            <mxPoint x="700" y="320" as="targetPoint" />
          </mxGeometry>
        </mxCell>
        <mxCell id="eGveahzySLRFpZ9VcZL--4" value="Initialise Video stream" style="rounded=1;whiteSpace=wrap;html=1;absoluteArcSize=1;arcSize=14;strokeWidth=2;" parent="1" vertex="1">
          <mxGeometry x="540" y="420" width="120" height="80" as="geometry" />
        </mxCell>
        <mxCell id="eGveahzySLRFpZ9VcZL--14" value="Initialise GUI windows and backscatter segmentation system&lt;div&gt;&lt;br&gt;&lt;/div&gt;&lt;div&gt;mainLoop = True&lt;/div&gt;" style="rounded=1;whiteSpace=wrap;html=1;absoluteArcSize=1;arcSize=14;strokeWidth=2;" parent="1" vertex="1">
          <mxGeometry x="720" y="280" width="120" height="80" as="geometry" />
        </mxCell>
        <mxCell id="eGveahzySLRFpZ9VcZL--17" style="edgeStyle=orthogonalEdgeStyle;rounded=0;orthogonalLoop=1;jettySize=auto;html=1;entryX=0;entryY=0.5;entryDx=0;entryDy=0;entryPerimeter=0;" parent="1" source="trEyPfGM2nonubFq6iDf-1" target="eGveahzySLRFpZ9VcZL--1" edge="1">
          <mxGeometry relative="1" as="geometry" />
        </mxCell>
        <mxCell id="dSUvMCAVpxAmKebVYP80-15" style="edgeStyle=orthogonalEdgeStyle;rounded=0;orthogonalLoop=1;jettySize=auto;html=1;entryX=0;entryY=0.5;entryDx=0;entryDy=0;" parent="1" source="2RtQXNooaOlrMEQbd2Xz-1" target="dSUvMCAVpxAmKebVYP80-3" edge="1">
          <mxGeometry relative="1" as="geometry" />
        </mxCell>
        <mxCell id="dSUvMCAVpxAmKebVYP80-16" style="edgeStyle=orthogonalEdgeStyle;rounded=0;orthogonalLoop=1;jettySize=auto;html=1;entryX=0;entryY=0.5;entryDx=0;entryDy=0;" parent="1" source="2RtQXNooaOlrMEQbd2Xz-1" target="dSUvMCAVpxAmKebVYP80-4" edge="1">
          <mxGeometry relative="1" as="geometry">
            <Array as="points">
              <mxPoint x="1060" y="320" />
              <mxPoint x="1060" y="460" />
            </Array>
          </mxGeometry>
        </mxCell>
        <mxCell id="Jw8HkO5E1I3ThNMeyRhE-6" value="TRUE" style="edgeLabel;html=1;align=center;verticalAlign=middle;resizable=0;points=[];" parent="dSUvMCAVpxAmKebVYP80-16" vertex="1" connectable="0">
          <mxGeometry x="-0.8462" y="1" relative="1" as="geometry">
            <mxPoint as="offset" />
          </mxGeometry>
        </mxCell>
        <mxCell id="Jw8HkO5E1I3ThNMeyRhE-2" style="edgeStyle=orthogonalEdgeStyle;rounded=0;orthogonalLoop=1;jettySize=auto;html=1;entryX=0.5;entryY=1;entryDx=0;entryDy=0;" parent="1" source="2RtQXNooaOlrMEQbd2Xz-1" target="dSUvMCAVpxAmKebVYP80-35" edge="1">
          <mxGeometry relative="1" as="geometry" />
        </mxCell>
        <mxCell id="Jw8HkO5E1I3ThNMeyRhE-7" value="FALSE" style="edgeLabel;html=1;align=center;verticalAlign=middle;resizable=0;points=[];" parent="Jw8HkO5E1I3ThNMeyRhE-2" vertex="1" connectable="0">
          <mxGeometry x="-0.4381" y="1" relative="1" as="geometry">
            <mxPoint as="offset" />
          </mxGeometry>
        </mxCell>
        <mxCell id="2RtQXNooaOlrMEQbd2Xz-1" value="mainLoop = True?" style="strokeWidth=2;html=1;shape=mxgraph.flowchart.decision;whiteSpace=wrap;" parent="1" vertex="1">
          <mxGeometry x="900" y="280" width="120" height="80" as="geometry" />
        </mxCell>
        <mxCell id="dSUvMCAVpxAmKebVYP80-3" value="&lt;span style=&quot;background-color: initial;&quot;&gt;Capture frame from stream&lt;/span&gt;" style="rounded=1;whiteSpace=wrap;html=1;absoluteArcSize=1;arcSize=14;strokeWidth=2;" parent="1" vertex="1">
          <mxGeometry x="1080" y="280" width="120" height="80" as="geometry" />
        </mxCell>
        <mxCell id="dSUvMCAVpxAmKebVYP80-4" value="Log user-input keypress" style="rounded=1;whiteSpace=wrap;html=1;absoluteArcSize=1;arcSize=14;strokeWidth=2;" parent="1" vertex="1">
          <mxGeometry x="1080" y="420" width="120" height="80" as="geometry" />
        </mxCell>
        <mxCell id="dSUvMCAVpxAmKebVYP80-29" style="edgeStyle=orthogonalEdgeStyle;rounded=0;orthogonalLoop=1;jettySize=auto;html=1;entryX=0.5;entryY=0;entryDx=0;entryDy=0;" parent="1" source="dSUvMCAVpxAmKebVYP80-5" target="dSUvMCAVpxAmKebVYP80-6" edge="1">
          <mxGeometry relative="1" as="geometry" />
        </mxCell>
        <mxCell id="Jw8HkO5E1I3ThNMeyRhE-9" value="TRUE" style="edgeLabel;html=1;align=center;verticalAlign=middle;resizable=0;points=[];" parent="dSUvMCAVpxAmKebVYP80-29" vertex="1" connectable="0">
          <mxGeometry x="-0.4825" y="-1" relative="1" as="geometry">
            <mxPoint as="offset" />
          </mxGeometry>
        </mxCell>
        <mxCell id="dSUvMCAVpxAmKebVYP80-5" value="keypress = &#39;E&#39;?" style="strokeWidth=2;html=1;shape=mxgraph.flowchart.decision;whiteSpace=wrap;" parent="1" vertex="1">
          <mxGeometry x="1260" y="280" width="120" height="80" as="geometry" />
        </mxCell>
        <mxCell id="dSUvMCAVpxAmKebVYP80-33" style="edgeStyle=orthogonalEdgeStyle;rounded=0;orthogonalLoop=1;jettySize=auto;html=1;" parent="1" source="dSUvMCAVpxAmKebVYP80-6" edge="1">
          <mxGeometry relative="1" as="geometry">
            <mxPoint x="1320" y="600" as="targetPoint" />
          </mxGeometry>
        </mxCell>
        <mxCell id="dSUvMCAVpxAmKebVYP80-6" value="mainLoop = False" style="rounded=1;whiteSpace=wrap;html=1;absoluteArcSize=1;arcSize=14;strokeWidth=2;" parent="1" vertex="1">
          <mxGeometry x="1260" y="420" width="120" height="80" as="geometry" />
        </mxCell>
        <mxCell id="dSUvMCAVpxAmKebVYP80-21" style="edgeStyle=orthogonalEdgeStyle;rounded=0;orthogonalLoop=1;jettySize=auto;html=1;entryX=0;entryY=0.5;entryDx=0;entryDy=0;" parent="1" source="dSUvMCAVpxAmKebVYP80-7" target="dSUvMCAVpxAmKebVYP80-9" edge="1">
          <mxGeometry relative="1" as="geometry">
            <Array as="points">
              <mxPoint x="1600" y="320" />
              <mxPoint x="1600" y="40" />
            </Array>
          </mxGeometry>
        </mxCell>
        <mxCell id="Jw8HkO5E1I3ThNMeyRhE-11" value="TRUE" style="edgeLabel;html=1;align=center;verticalAlign=middle;resizable=0;points=[];" parent="dSUvMCAVpxAmKebVYP80-21" vertex="1" connectable="0">
          <mxGeometry x="-0.9039" relative="1" as="geometry">
            <mxPoint as="offset" />
          </mxGeometry>
        </mxCell>
        <mxCell id="dSUvMCAVpxAmKebVYP80-34" style="edgeStyle=orthogonalEdgeStyle;rounded=0;orthogonalLoop=1;jettySize=auto;html=1;entryX=1;entryY=0.5;entryDx=0;entryDy=0;" parent="1" source="dSUvMCAVpxAmKebVYP80-7" target="dSUvMCAVpxAmKebVYP80-6" edge="1">
          <mxGeometry relative="1" as="geometry">
            <Array as="points">
              <mxPoint x="1500" y="460" />
            </Array>
          </mxGeometry>
        </mxCell>
        <mxCell id="Jw8HkO5E1I3ThNMeyRhE-10" value="FALSE" style="edgeLabel;html=1;align=center;verticalAlign=middle;resizable=0;points=[];" parent="dSUvMCAVpxAmKebVYP80-34" vertex="1" connectable="0">
          <mxGeometry x="-0.8762" y="1" relative="1" as="geometry">
            <mxPoint as="offset" />
          </mxGeometry>
        </mxCell>
        <mxCell id="dSUvMCAVpxAmKebVYP80-7" value="frame is valid?" style="strokeWidth=2;html=1;shape=mxgraph.flowchart.decision;whiteSpace=wrap;" parent="1" vertex="1">
          <mxGeometry x="1440" y="280" width="120" height="80" as="geometry" />
        </mxCell>
        <mxCell id="dSUvMCAVpxAmKebVYP80-24" style="edgeStyle=orthogonalEdgeStyle;rounded=0;orthogonalLoop=1;jettySize=auto;html=1;entryX=0.5;entryY=0;entryDx=0;entryDy=0;" parent="1" source="dSUvMCAVpxAmKebVYP80-9" target="dSUvMCAVpxAmKebVYP80-10" edge="1">
          <mxGeometry relative="1" as="geometry" />
        </mxCell>
        <mxCell id="dSUvMCAVpxAmKebVYP80-9" value="Greyscale filter" style="rounded=1;whiteSpace=wrap;html=1;absoluteArcSize=1;arcSize=14;strokeWidth=2;" parent="1" vertex="1">
          <mxGeometry x="1620" width="120" height="80" as="geometry" />
        </mxCell>
        <mxCell id="dSUvMCAVpxAmKebVYP80-25" style="edgeStyle=orthogonalEdgeStyle;rounded=0;orthogonalLoop=1;jettySize=auto;html=1;entryX=0.5;entryY=0;entryDx=0;entryDy=0;" parent="1" source="dSUvMCAVpxAmKebVYP80-10" target="dSUvMCAVpxAmKebVYP80-11" edge="1">
          <mxGeometry relative="1" as="geometry" />
        </mxCell>
        <mxCell id="dSUvMCAVpxAmKebVYP80-10" value="Gaussian blur" style="rounded=1;whiteSpace=wrap;html=1;absoluteArcSize=1;arcSize=14;strokeWidth=2;" parent="1" vertex="1">
          <mxGeometry x="1620" y="140" width="120" height="80" as="geometry" />
        </mxCell>
        <mxCell id="dSUvMCAVpxAmKebVYP80-26" style="edgeStyle=orthogonalEdgeStyle;rounded=0;orthogonalLoop=1;jettySize=auto;html=1;entryX=0.5;entryY=0;entryDx=0;entryDy=0;" parent="1" source="dSUvMCAVpxAmKebVYP80-11" target="dSUvMCAVpxAmKebVYP80-12" edge="1">
          <mxGeometry relative="1" as="geometry" />
        </mxCell>
        <mxCell id="dSUvMCAVpxAmKebVYP80-11" value="Histogram equalisation" style="rounded=1;whiteSpace=wrap;html=1;absoluteArcSize=1;arcSize=14;strokeWidth=2;" parent="1" vertex="1">
          <mxGeometry x="1620" y="280" width="120" height="80" as="geometry" />
        </mxCell>
        <mxCell id="dSUvMCAVpxAmKebVYP80-27" style="edgeStyle=orthogonalEdgeStyle;rounded=0;orthogonalLoop=1;jettySize=auto;html=1;entryX=0.5;entryY=0;entryDx=0;entryDy=0;" parent="1" source="dSUvMCAVpxAmKebVYP80-12" target="dSUvMCAVpxAmKebVYP80-13" edge="1">
          <mxGeometry relative="1" as="geometry" />
        </mxCell>
        <mxCell id="dSUvMCAVpxAmKebVYP80-12" value="Canny algorithm" style="rounded=1;whiteSpace=wrap;html=1;absoluteArcSize=1;arcSize=14;strokeWidth=2;" parent="1" vertex="1">
          <mxGeometry x="1620" y="420" width="120" height="80" as="geometry" />
        </mxCell>
        <mxCell id="dSUvMCAVpxAmKebVYP80-28" style="edgeStyle=orthogonalEdgeStyle;rounded=0;orthogonalLoop=1;jettySize=auto;html=1;" parent="1" source="dSUvMCAVpxAmKebVYP80-13" edge="1">
          <mxGeometry relative="1" as="geometry">
            <mxPoint x="880" y="320" as="targetPoint" />
          </mxGeometry>
        </mxCell>
        <mxCell id="dSUvMCAVpxAmKebVYP80-13" value="Find contours, then minimum enclosing circles for segmentation" style="rounded=1;whiteSpace=wrap;html=1;absoluteArcSize=1;arcSize=14;strokeWidth=2;" parent="1" vertex="1">
          <mxGeometry x="1620" y="560" width="120" height="80" as="geometry" />
        </mxCell>
        <mxCell id="dSUvMCAVpxAmKebVYP80-14" style="edgeStyle=orthogonalEdgeStyle;rounded=0;orthogonalLoop=1;jettySize=auto;html=1;entryX=0;entryY=0.5;entryDx=0;entryDy=0;entryPerimeter=0;" parent="1" source="eGveahzySLRFpZ9VcZL--14" target="2RtQXNooaOlrMEQbd2Xz-1" edge="1">
          <mxGeometry relative="1" as="geometry" />
        </mxCell>
        <mxCell id="dSUvMCAVpxAmKebVYP80-17" style="edgeStyle=orthogonalEdgeStyle;rounded=0;orthogonalLoop=1;jettySize=auto;html=1;entryX=0;entryY=0.5;entryDx=0;entryDy=0;entryPerimeter=0;" parent="1" source="dSUvMCAVpxAmKebVYP80-3" target="dSUvMCAVpxAmKebVYP80-5" edge="1">
          <mxGeometry relative="1" as="geometry" />
        </mxCell>
        <mxCell id="dSUvMCAVpxAmKebVYP80-19" style="edgeStyle=orthogonalEdgeStyle;rounded=0;orthogonalLoop=1;jettySize=auto;html=1;entryX=0;entryY=0.5;entryDx=0;entryDy=0;entryPerimeter=0;" parent="1" source="dSUvMCAVpxAmKebVYP80-5" target="dSUvMCAVpxAmKebVYP80-7" edge="1">
          <mxGeometry relative="1" as="geometry" />
        </mxCell>
        <mxCell id="Jw8HkO5E1I3ThNMeyRhE-8" value="FALSE" style="edgeLabel;html=1;align=center;verticalAlign=middle;resizable=0;points=[];" parent="dSUvMCAVpxAmKebVYP80-19" vertex="1" connectable="0">
          <mxGeometry x="-0.6778" y="1" relative="1" as="geometry">
            <mxPoint x="10" y="1" as="offset" />
          </mxGeometry>
        </mxCell>
        <mxCell id="Jw8HkO5E1I3ThNMeyRhE-3" style="edgeStyle=orthogonalEdgeStyle;rounded=0;orthogonalLoop=1;jettySize=auto;html=1;entryX=0.5;entryY=1;entryDx=0;entryDy=0;" parent="1" source="dSUvMCAVpxAmKebVYP80-35" target="dSUvMCAVpxAmKebVYP80-36" edge="1">
          <mxGeometry relative="1" as="geometry" />
        </mxCell>
        <mxCell id="dSUvMCAVpxAmKebVYP80-35" value="Offload metrics from nested lists to Pandas dataframe" style="rounded=1;whiteSpace=wrap;html=1;absoluteArcSize=1;arcSize=14;strokeWidth=2;" parent="1" vertex="1">
          <mxGeometry x="900" y="140" width="120" height="80" as="geometry" />
        </mxCell>
        <mxCell id="Jw8HkO5E1I3ThNMeyRhE-4" style="edgeStyle=orthogonalEdgeStyle;rounded=0;orthogonalLoop=1;jettySize=auto;html=1;entryX=0;entryY=0.5;entryDx=0;entryDy=0;" parent="1" source="dSUvMCAVpxAmKebVYP80-36" target="dSUvMCAVpxAmKebVYP80-37" edge="1">
          <mxGeometry relative="1" as="geometry" />
        </mxCell>
        <mxCell id="dSUvMCAVpxAmKebVYP80-36" value="Export Pandas dataframe as CSV and store file" style="rounded=1;whiteSpace=wrap;html=1;absoluteArcSize=1;arcSize=14;strokeWidth=2;" parent="1" vertex="1">
          <mxGeometry x="900" width="120" height="80" as="geometry" />
        </mxCell>
        <mxCell id="dSUvMCAVpxAmKebVYP80-37" value="Destroy all GUI windows&lt;div&gt;&lt;br&gt;&lt;/div&gt;&lt;div&gt;Close capture&lt;/div&gt;" style="rounded=1;whiteSpace=wrap;html=1;absoluteArcSize=1;arcSize=14;strokeWidth=2;" parent="1" vertex="1">
          <mxGeometry x="1080" width="120" height="80" as="geometry" />
        </mxCell>
        <mxCell id="Jw8HkO5E1I3ThNMeyRhE-1" value="Graceful Python exit" style="strokeWidth=2;html=1;shape=mxgraph.flowchart.start_1;whiteSpace=wrap;" parent="1" vertex="1">
          <mxGeometry x="1260" width="120" height="80" as="geometry" />
        </mxCell>
        <mxCell id="Jw8HkO5E1I3ThNMeyRhE-5" style="edgeStyle=orthogonalEdgeStyle;rounded=0;orthogonalLoop=1;jettySize=auto;html=1;entryX=0;entryY=0.5;entryDx=0;entryDy=0;entryPerimeter=0;" parent="1" source="dSUvMCAVpxAmKebVYP80-37" target="Jw8HkO5E1I3ThNMeyRhE-1" edge="1">
          <mxGeometry relative="1" as="geometry" />
        </mxCell>
      </root>
    </mxGraphModel>
  </diagram>
  <diagram id="22SawoCTWOjjGHZv_SRe" name="test_image-processing-pipeline">
    <mxGraphModel dx="1194" dy="824" grid="1" gridSize="10" guides="1" tooltips="1" connect="1" arrows="1" fold="1" page="1" pageScale="1" pageWidth="827" pageHeight="1169" math="0" shadow="0">
      <root>
        <mxCell id="0" />
        <mxCell id="1" parent="0" />
        <mxCell id="qHLzhlCx7anSTn9rtqht-1" style="edgeStyle=orthogonalEdgeStyle;rounded=0;orthogonalLoop=1;jettySize=auto;html=1;exitX=1;exitY=0.5;exitDx=0;exitDy=0;entryX=0;entryY=0.5;entryDx=0;entryDy=0;" parent="1" source="qHLzhlCx7anSTn9rtqht-2" target="qHLzhlCx7anSTn9rtqht-4" edge="1">
          <mxGeometry relative="1" as="geometry" />
        </mxCell>
        <mxCell id="qHLzhlCx7anSTn9rtqht-2" value="Greyscale Conversion" style="rounded=0;whiteSpace=wrap;html=1;" parent="1" vertex="1">
          <mxGeometry x="70" y="120" width="80" height="40" as="geometry" />
        </mxCell>
        <mxCell id="qHLzhlCx7anSTn9rtqht-3" style="edgeStyle=orthogonalEdgeStyle;rounded=0;orthogonalLoop=1;jettySize=auto;html=1;exitX=1;exitY=0.5;exitDx=0;exitDy=0;entryX=0;entryY=0.5;entryDx=0;entryDy=0;" parent="1" source="qHLzhlCx7anSTn9rtqht-4" target="qHLzhlCx7anSTn9rtqht-5" edge="1">
          <mxGeometry relative="1" as="geometry" />
        </mxCell>
        <mxCell id="qHLzhlCx7anSTn9rtqht-4" value="Gaussian Blur" style="rounded=0;whiteSpace=wrap;html=1;" parent="1" vertex="1">
          <mxGeometry x="190" y="120" width="80" height="40" as="geometry" />
        </mxCell>
        <mxCell id="qHLzhlCx7anSTn9rtqht-5" value="Binary Thresholding" style="rounded=0;whiteSpace=wrap;html=1;" parent="1" vertex="1">
          <mxGeometry x="310" y="120" width="80" height="40" as="geometry" />
        </mxCell>
        <mxCell id="qHLzhlCx7anSTn9rtqht-6" style="edgeStyle=orthogonalEdgeStyle;rounded=0;orthogonalLoop=1;jettySize=auto;html=1;exitX=1;exitY=0.5;exitDx=0;exitDy=0;entryX=0;entryY=0.5;entryDx=0;entryDy=0;" parent="1" source="qHLzhlCx7anSTn9rtqht-5" target="qHLzhlCx7anSTn9rtqht-8" edge="1">
          <mxGeometry relative="1" as="geometry">
            <mxPoint x="510" y="140" as="sourcePoint" />
          </mxGeometry>
        </mxCell>
        <mxCell id="qHLzhlCx7anSTn9rtqht-7" style="edgeStyle=orthogonalEdgeStyle;rounded=0;orthogonalLoop=1;jettySize=auto;html=1;exitX=1;exitY=0.5;exitDx=0;exitDy=0;entryX=0;entryY=0.5;entryDx=0;entryDy=0;" parent="1" source="qHLzhlCx7anSTn9rtqht-8" target="qHLzhlCx7anSTn9rtqht-9" edge="1">
          <mxGeometry relative="1" as="geometry" />
        </mxCell>
        <mxCell id="qHLzhlCx7anSTn9rtqht-8" value="Canny Algorithm" style="rounded=0;whiteSpace=wrap;html=1;" parent="1" vertex="1">
          <mxGeometry x="430" y="120" width="80" height="40" as="geometry" />
        </mxCell>
        <mxCell id="qHLzhlCx7anSTn9rtqht-9" value="Particle Segmentation" style="rounded=0;whiteSpace=wrap;html=1;" parent="1" vertex="1">
          <mxGeometry x="550" y="120" width="80" height="40" as="geometry" />
        </mxCell>
        <mxCell id="qHLzhlCx7anSTn9rtqht-10" value="" style="shape=flexArrow;endArrow=classic;html=1;rounded=0;entryX=0;entryY=0.5;entryDx=0;entryDy=0;" parent="1" target="qHLzhlCx7anSTn9rtqht-2" edge="1">
          <mxGeometry width="50" height="50" relative="1" as="geometry">
            <mxPoint y="140" as="sourcePoint" />
            <mxPoint x="550" y="410" as="targetPoint" />
          </mxGeometry>
        </mxCell>
        <mxCell id="qHLzhlCx7anSTn9rtqht-11" value="" style="shape=flexArrow;endArrow=classic;html=1;rounded=0;entryX=0;entryY=0.5;entryDx=0;entryDy=0;" parent="1" edge="1">
          <mxGeometry width="50" height="50" relative="1" as="geometry">
            <mxPoint x="630" y="139.5" as="sourcePoint" />
            <mxPoint x="700" y="139.5" as="targetPoint" />
          </mxGeometry>
        </mxCell>
        <mxCell id="qHLzhlCx7anSTn9rtqht-12" value="Input Image Frame" style="text;html=1;align=center;verticalAlign=middle;whiteSpace=wrap;rounded=0;" parent="1" vertex="1">
          <mxGeometry y="90" width="70" height="30" as="geometry" />
        </mxCell>
        <mxCell id="qHLzhlCx7anSTn9rtqht-13" value="Output Particles" style="text;html=1;align=center;verticalAlign=middle;whiteSpace=wrap;rounded=0;" parent="1" vertex="1">
          <mxGeometry x="630" y="90" width="70" height="30" as="geometry" />
        </mxCell>
      </root>
    </mxGraphModel>
  </diagram>
</mxfile>
